<svg viewBox="0 0 45 48" fill="none" xmlns="http://www.w3.org/2000/svg">
<path fill-rule="evenodd" clip-rule="evenodd" d="M7.41988 38.4947C7.32552 40.9463 8.96135 43.4414 12.1269 45.3548C17.9864 48.8967 27.515 48.8796 33.4095 45.3165C37.5957 42.7862 38.8232 39.1479 37.0844 35.9829L37.0395 37.9142C37.4908 40.4372 36.1094 43.0638 32.8961 45.0062C27.2822 48.3995 18.2135 48.4132 12.6404 45.0444C9.5975 43.2051 8.04467 40.8192 8.1473 38.4832L7.41988 38.4947Z" fill="black"/>
<path d="M6.92578 12.4077L7.74581 38.5907" stroke-width="0.7"/>
<path d="M37.4306 12.6167L37.4282 37.8488" stroke-width="0.7"/>
<circle cx="12.8272" cy="12.8272" r="12.3272" transform="matrix(0.866044 0.499967 -0.866044 0.499967 22.2178 0)" />
<path d="M18.5039 33.3953L22.5856 25.2319L21.4724 31.54H26.6672L18.875 41.1876L22.5856 33.3953H18.5039Z"/>
</svg>
