<svg  viewBox="0 0 61 44" fill="none" xmlns="http://www.w3.org/2000/svg">
<path d="M58.9854 21.2515V29.5013"  stroke-width="0.6"/>
<path d="M35.4966 34.0732L35.4966 42.5732"  stroke-width="0.6"/>
<path d="M1.98682 14.502L1.99683 24.0734"  stroke-width="0.5"/>
<rect y="0.399974" width="40.4038" height="28.4201" rx="2.6" transform="matrix(0.866044 0.499967 -0.866044 0.499967 25.6525 0.2)"  stroke-width="0.8"/>
<path fill-rule="evenodd" clip-rule="evenodd" d="M2.0361 23.8876C1.97082 23.8507 1.89093 23.8506 1.82558 23.8875C1.68078 23.9692 1.68048 24.1776 1.82504 24.2597L1.93309 24.3211L35.2881 43.269L35.2928 43.2717C35.5598 43.4233 35.8875 43.4202 36.1516 43.2636L59.1586 29.6143C59.2731 29.5464 59.2725 29.3804 59.1576 29.3132C59.1052 29.2826 59.0407 29.2814 58.9871 29.31L57.2868 30.2179L37.2131 42.1269C36.2868 42.6764 35.1371 42.6873 34.2006 42.1553L4.32091 25.1816L2.0361 23.8876Z" fill="black"/>
<path d="M46.2613 21.6212L38.2563 26.2425C37.35 26.7657 35.9383 26.8018 35.1088 26.3229C34.5999 26.0291 33.7144 26.0624 33.1344 26.3972L32.1935 26.9404C31.2872 27.4636 29.8752 27.4999 29.0457 27.021L25.0481 24.7132C24.2186 24.2343 24.2814 23.4192 25.1877 22.896L26.1286 22.3528C26.7086 22.018 26.7663 21.5068 26.2574 21.213L23.2954 19.503C22.7864 19.2092 21.9009 19.2425 21.321 19.5773L20.38 20.1205C19.4737 20.6437 18.0618 20.68 17.2323 20.2011L11.2766 16.7629C10.4471 16.284 10.5098 15.4689 11.4161 14.9456L26.6922 6.12674C27.5986 5.60353 29.0105 5.5673 29.84 6.04618L35.7957 9.4844C36.6252 9.96328 36.5625 10.7784 35.6562 11.3016L34.7153 11.8448C34.1353 12.1796 34.0775 12.6908 34.5865 12.9846L37.5485 14.6946C38.0574 14.9884 38.9429 14.9551 39.5229 14.6203L40.4638 14.0771C41.3701 13.5539 42.7821 13.5176 43.6116 13.9965L47.6092 16.3043C48.4387 16.7832 48.3759 17.5983 47.4696 18.1215L46.5287 18.6647C45.9488 18.9995 45.891 19.5107 46.3999 19.8045C47.2298 20.2829 47.1673 21.0982 46.2613 21.6212ZM25.7696 23.2316C25.1896 23.5664 25.1316 24.0777 25.6405 24.3715L29.6381 26.6794C30.147 26.9732 31.0329 26.9396 31.6128 26.6048L32.5537 26.0616C33.46 25.5384 34.8717 25.5024 35.7012 25.9813C36.2101 26.2751 37.0957 26.2417 37.6756 25.9069L45.6806 21.2857C46.2605 20.9509 46.3183 20.4396 45.8093 20.1458C44.9798 19.667 45.0423 18.852 45.9486 18.3288L46.8895 17.7856C47.4695 17.4508 47.5275 16.9394 47.0186 16.6456L43.0207 14.3376C42.5118 14.0438 41.6259 14.0773 41.046 14.4121L40.1051 14.9553C39.1988 15.4785 37.7871 15.5146 36.9576 15.0357L33.9956 13.3258C33.1661 12.8469 33.2285 12.0319 34.1348 11.5087L35.0758 10.9655C35.6557 10.6307 35.7138 10.1193 35.2048 9.82553L29.2491 6.3873C28.7402 6.09349 27.8544 6.12701 27.2744 6.46181L11.9977 15.2811C11.4178 15.6159 11.3597 16.1272 11.8686 16.4211L17.8244 19.8593C18.3333 20.1531 19.2191 20.1196 19.799 19.7848L20.74 19.2416C21.6463 18.7184 23.0579 18.6823 23.8874 19.1612L26.8495 20.8712C27.679 21.35 27.6165 22.165 26.7102 22.6882L25.7696 23.2316Z" fill="black"/>
</svg>
