<svg  viewBox="0 0 60 29" fill="none" xmlns="http://www.w3.org/2000/svg">
<path d="M3.05856 0.771484C3.05856 0.771484 1.40527 0.771484 1.40527 2.4604V26.6525C1.40527 26.6525 1.40527 28.3414 3.05856 28.3414H57.0154C57.0154 28.3414 58.6687 28.3414 58.6687 26.6525V2.4604C58.6687 2.4604 58.6687 0.771484 57.0154 0.771484H3.05856Z"  stroke-width="1.2"/>
<path d="M16.1962 20.8221L16.2001 20.8219H43.2229C43.2731 20.8219 43.3008 20.8338 43.3163 20.844C43.3327 20.8547 43.3452 20.8698 43.355 20.889C43.3651 20.9089 43.3709 20.9306 43.374 20.9485C43.3754 20.9571 43.3761 20.9639 43.3764 20.968L43.3766 20.9715V23.5609C43.3766 23.6087 43.3649 23.6347 43.355 23.6492C43.3444 23.6649 43.329 23.6774 43.3086 23.6874C43.2877 23.6977 43.2649 23.7036 43.2461 23.7067C43.237 23.7082 43.2298 23.7089 43.2254 23.7092L43.222 23.7094L43.2224 23.7094L43.2226 23.7094L43.2215 23.7094H16.1987C16.1485 23.7094 16.1209 23.6974 16.1054 23.6873C16.089 23.6766 16.0765 23.6614 16.0667 23.6421C16.0565 23.6221 16.0507 23.6004 16.0477 23.5824C16.0462 23.5738 16.0455 23.5669 16.0452 23.5628L16.045 23.5593V20.9699C16.045 20.9223 16.0567 20.8964 16.0666 20.8819C16.0771 20.8663 16.0926 20.8538 16.1129 20.8438C16.1339 20.8335 16.1566 20.8276 16.1755 20.8246C16.1845 20.8231 16.1918 20.8224 16.1962 20.8221Z"  stroke-width="0.3"/>
<path d="M45.4188 20.8221L45.4234 20.8219H52.6834C52.7381 20.8219 52.7692 20.8344 52.7868 20.8455C52.805 20.8569 52.8182 20.8725 52.8282 20.8913C52.8385 20.9109 52.8445 20.9321 52.8476 20.9495C52.8491 20.9579 52.8497 20.9646 52.85 20.9685L52.8502 20.9716V23.5609C52.8502 23.6073 52.8384 23.6324 52.8283 23.6468C52.8171 23.6626 52.8004 23.6757 52.7779 23.6864C52.7549 23.6972 52.7301 23.7033 52.7096 23.7065C52.6997 23.7081 52.6918 23.7088 52.6869 23.7091L52.6822 23.7094H45.4223C45.3676 23.7094 45.3366 23.6968 45.3189 23.6857C45.3007 23.6743 45.2876 23.6587 45.2776 23.6398C45.2672 23.6202 45.2612 23.5989 45.2581 23.5814C45.2566 23.5729 45.256 23.5663 45.2557 23.5623L45.2555 23.5592V20.9699C45.2555 20.9236 45.2672 20.8987 45.2774 20.8844C45.2885 20.8686 45.3052 20.8555 45.3277 20.8449C45.3507 20.8341 45.3755 20.8279 45.396 20.8247C45.4059 20.8232 45.4138 20.8224 45.4188 20.8221Z"  stroke-width="0.3"/>
<path d="M7.49453 20.822L7.49732 20.8219H14.0305C14.0742 20.8219 14.0971 20.8328 14.1096 20.8415C14.1235 20.8512 14.1352 20.8656 14.1447 20.8856C14.1545 20.9061 14.1602 20.9284 14.1631 20.947C14.1645 20.9559 14.1652 20.963 14.1655 20.9674L14.1657 20.9712V23.5609C14.1657 23.6106 14.1542 23.6379 14.1446 23.6529C14.1347 23.6685 14.1209 23.6801 14.1036 23.6892C14.0855 23.6986 14.0657 23.7041 14.0493 23.7069C14.0415 23.7083 14.0352 23.7089 14.0316 23.7092L14.0288 23.7094H7.49561C7.45202 23.7094 7.42916 23.6985 7.4166 23.6897C7.40275 23.6801 7.39104 23.6655 7.38145 23.6455C7.37165 23.625 7.366 23.6025 7.36304 23.5839C7.36162 23.575 7.36096 23.5678 7.36066 23.5635L7.36045 23.5595V20.9699C7.36045 20.9203 7.37196 20.8932 7.38147 20.8783C7.39138 20.8627 7.40515 20.8511 7.42251 20.8421C7.44058 20.8326 7.46036 20.8272 7.4768 20.8243C7.48468 20.8229 7.49089 20.8223 7.49453 20.822Z"  stroke-width="0.3"/>
<path d="M21.7175 15.2439C21.7181 15.2438 21.7186 15.2438 21.719 15.2438H24.2835C24.323 15.2438 24.3441 15.2551 24.358 15.2668C24.3747 15.2808 24.3902 15.3035 24.4029 15.3354C24.4154 15.3669 24.4223 15.4006 24.426 15.4278C24.4277 15.441 24.4285 15.4518 24.4289 15.4588L24.4293 15.4661L24.4293 15.467L24.4293 15.4667L24.4293 15.4665L24.4293 15.467V18.705C24.4293 18.8442 24.3784 18.8876 24.3514 18.9046C24.3332 18.9161 24.3141 18.9223 24.2989 18.9255C24.2915 18.9271 24.2858 18.9277 24.2828 18.928C24.2821 18.9281 24.2816 18.9281 24.2812 18.9281H21.7167C21.6775 18.9281 21.6565 18.9168 21.6426 18.9051C21.626 18.8911 21.6104 18.8684 21.5978 18.8364C21.5853 18.8047 21.5783 18.771 21.5747 18.7437C21.573 18.7304 21.5721 18.7196 21.5717 18.7125L21.5714 18.7052L21.5714 18.7043L21.5714 18.7046L21.5714 18.7048L21.5714 18.7049C21.5714 18.7049 21.5714 18.705 21.4233 18.705L21.5714 18.705V18.7043V15.4663C21.5714 15.3274 21.6222 15.2841 21.6491 15.2672C21.6672 15.2558 21.6863 15.2495 21.7014 15.2464C21.7087 15.2448 21.7144 15.2441 21.7175 15.2439Z"  stroke-width="0.3"/>
<path d="M16.2656 15.2438C16.2657 15.2438 16.2657 15.2438 16.2658 15.2438H19.4733C19.539 15.2438 19.5784 15.2599 19.6029 15.2764C19.6285 15.2936 19.6475 15.3177 19.6618 15.3466C19.6764 15.3761 19.6845 15.4074 19.6886 15.4326C19.6906 15.4448 19.6916 15.4547 19.692 15.4609L19.6924 15.4671C19.6924 15.4672 19.6924 15.4673 19.6924 15.4674V18.705C19.6924 18.7723 19.6761 18.8129 19.6595 18.8381C19.6423 18.8642 19.6184 18.8833 19.5902 18.8976C19.5613 18.9122 19.5307 18.9202 19.506 18.9244C19.494 18.9264 19.4844 18.9273 19.4783 18.9278L19.4724 18.9281C19.4723 18.9281 19.4722 18.9281 19.4722 18.9281H16.2647C16.1988 18.9281 16.1594 18.9119 16.1347 18.8954C16.1091 18.8781 16.09 18.8539 16.0756 18.825C16.061 18.7954 16.053 18.7641 16.0488 18.7388C16.0468 18.7266 16.0458 18.7167 16.0454 18.7104L16.045 18.7042C16.045 18.7041 16.045 18.704 16.045 18.7039V15.4663C16.045 15.3992 16.0613 15.3588 16.0779 15.3337C16.0951 15.3077 16.119 15.2886 16.1474 15.2743C16.1763 15.2597 16.207 15.2517 16.2318 15.2475C16.2438 15.2455 16.2535 15.2445 16.2596 15.2441L16.2656 15.2438ZM16.045 18.7036L16.045 18.7037L16.045 18.7036Z"  stroke-width="0.3"/>
<mask id="path-7-inside-1_2630_329" fill="white">
<path d="M7.49561 15.0938C7.49561 15.0938 7.21045 15.0938 7.21045 15.4663V18.705C7.21045 18.705 7.21045 19.0781 7.49561 19.0781H14.0305C14.0305 19.0781 14.3157 19.0781 14.3157 18.705V15.4663C14.3157 15.4663 14.3157 15.0938 14.0305 15.0938H7.49561Z"/>
</mask>
<path d="M7.49561 15.0938V14.7937H7.49561L7.49561 15.0938ZM7.21045 18.705H6.91045V18.705L7.21045 18.705ZM14.0305 19.0781L14.0305 18.7781H14.0305V19.0781ZM14.3157 15.4663H14.6157V15.4663L14.3157 15.4663ZM7.49561 15.0938C7.49561 14.7937 7.49542 14.7938 7.49522 14.7938C7.49516 14.7938 7.49496 14.7938 7.49483 14.7938C7.49456 14.7938 7.49429 14.7938 7.49401 14.7938C7.49346 14.7938 7.49289 14.7938 7.49229 14.7938C7.4911 14.7938 7.48983 14.7938 7.48847 14.7938C7.48576 14.7939 7.48271 14.794 7.47935 14.7941C7.47265 14.7944 7.46463 14.7949 7.45548 14.7958C7.43729 14.7975 7.414 14.8006 7.38722 14.8064C7.3345 14.8179 7.26252 14.8411 7.18895 14.8892C7.02383 14.997 6.91045 15.19 6.91045 15.4663H7.51045C7.51045 15.4117 7.52073 15.3902 7.52223 15.3873C7.52316 15.3855 7.5214 15.3887 7.51711 15.3915C7.51578 15.3923 7.51496 15.3927 7.51487 15.3927C7.51482 15.3927 7.51492 15.3927 7.51489 15.3927C7.51484 15.3927 7.51383 15.3929 7.51124 15.3932C7.50988 15.3933 7.50799 15.3934 7.50546 15.3936C7.50419 15.3936 7.50275 15.3937 7.50112 15.3937C7.5003 15.3937 7.49943 15.3937 7.49852 15.3937C7.49806 15.3937 7.49759 15.3937 7.4971 15.3937C7.49686 15.3937 7.49662 15.3937 7.49637 15.3937C7.49624 15.3937 7.49605 15.3937 7.49599 15.3937C7.4958 15.3937 7.49561 15.3938 7.49561 15.0938ZM6.91045 15.4663V18.705H7.51045V15.4663H6.91045ZM7.21045 18.705C6.91045 18.705 6.91045 18.7051 6.91045 18.7052C6.91045 18.7052 6.91045 18.7054 6.91045 18.7054C6.91045 18.7056 6.91045 18.7058 6.91045 18.7059C6.91045 18.7063 6.91045 18.7067 6.91046 18.7071C6.91046 18.7079 6.91047 18.7087 6.91048 18.7097C6.91051 18.7117 6.91055 18.7141 6.91062 18.7168C6.91075 18.7222 6.911 18.7292 6.91145 18.7374C6.91234 18.7537 6.91404 18.7755 6.91731 18.8012C6.92365 18.8509 6.93683 18.9226 6.96585 18.9986C6.99447 19.0735 7.04446 19.1682 7.13354 19.2459C7.22856 19.3288 7.35219 19.3781 7.49561 19.3781V18.7781C7.4933 18.7781 7.49793 18.7779 7.50655 18.7811C7.51518 18.7843 7.52264 18.7891 7.52797 18.7938C7.53684 18.8015 7.53336 18.8029 7.52633 18.7845C7.51972 18.7672 7.51507 18.7456 7.5125 18.7254C7.51131 18.7161 7.51078 18.7087 7.51056 18.7046C7.51045 18.7026 7.51042 18.7015 7.51042 18.7015C7.51042 18.7015 7.51043 18.7018 7.51044 18.7023C7.51044 18.7026 7.51044 18.703 7.51044 18.7034C7.51045 18.7036 7.51045 18.7039 7.51045 18.7041C7.51045 18.7043 7.51045 18.7044 7.51045 18.7045C7.51045 18.7046 7.51045 18.7047 7.51045 18.7047C7.51045 18.7049 7.51045 18.705 7.21045 18.705ZM7.49561 19.3781H14.0305V18.7781H7.49561V19.3781ZM14.0305 19.0781C14.0305 19.3781 14.0307 19.3781 14.0309 19.3781C14.031 19.3781 14.0312 19.3781 14.0313 19.3781C14.0316 19.3781 14.0319 19.3781 14.0321 19.3781C14.0327 19.3781 14.0333 19.3781 14.0339 19.3781C14.0351 19.3781 14.0363 19.3781 14.0377 19.378C14.0404 19.378 14.0435 19.3779 14.0468 19.3777C14.0535 19.3775 14.0616 19.3769 14.0707 19.3761C14.0889 19.3744 14.1122 19.3712 14.139 19.3654C14.1918 19.3539 14.2638 19.3307 14.3374 19.2825C14.5025 19.1745 14.6157 18.9814 14.6157 18.705H14.0157C14.0157 18.7598 14.0054 18.7815 14.0038 18.7845C14.0029 18.7865 14.0046 18.7833 14.0089 18.7804C14.0102 18.7796 14.011 18.7792 14.0111 18.7792C14.0112 18.7792 14.0111 18.7792 14.0112 18.7792C14.0112 18.7792 14.0123 18.7789 14.0149 18.7787C14.0162 18.7786 14.0181 18.7784 14.0207 18.7783C14.022 18.7783 14.0234 18.7782 14.025 18.7782C14.0259 18.7782 14.0267 18.7781 14.0276 18.7781C14.0281 18.7781 14.0286 18.7781 14.0291 18.7781C14.0293 18.7781 14.0295 18.7781 14.0298 18.7781C14.0299 18.7781 14.0301 18.7781 14.0302 18.7781C14.0304 18.7781 14.0305 18.7781 14.0305 19.0781ZM14.6157 18.705V15.4663H14.0157V18.705H14.6157ZM14.3157 15.4663C14.6157 15.4663 14.6157 15.4662 14.6157 15.4661C14.6157 15.4661 14.6157 15.4659 14.6157 15.4659C14.6157 15.4657 14.6157 15.4655 14.6157 15.4654C14.6157 15.465 14.6157 15.4646 14.6157 15.4642C14.6157 15.4634 14.6157 15.4625 14.6157 15.4616C14.6157 15.4596 14.6156 15.4572 14.6155 15.4545C14.6154 15.4491 14.6152 15.4421 14.6147 15.4339C14.6138 15.4176 14.6121 15.3958 14.6088 15.3702C14.6025 15.3204 14.5893 15.2488 14.5602 15.1728C14.5316 15.0979 14.4816 15.0034 14.3925 14.9258C14.2974 14.843 14.1738 14.7937 14.0305 14.7937V15.3938C14.0329 15.3938 14.0283 15.394 14.0198 15.3908C14.0112 15.3876 14.0037 15.3828 13.9984 15.3782C13.9894 15.3704 13.9929 15.369 13.9999 15.3873C14.0065 15.4045 14.0111 15.426 14.0137 15.4461C14.0148 15.4554 14.0154 15.4626 14.0156 15.4667C14.0157 15.4687 14.0157 15.4698 14.0157 15.4698C14.0157 15.4698 14.0157 15.4695 14.0157 15.469C14.0157 15.4687 14.0157 15.4683 14.0157 15.4679C14.0157 15.4677 14.0157 15.4674 14.0157 15.4672C14.0157 15.467 14.0157 15.4669 14.0157 15.4668C14.0157 15.4667 14.0157 15.4666 14.0157 15.4666C14.0157 15.4664 14.0157 15.4663 14.3157 15.4663ZM14.0305 14.7937H7.49561V15.3938H14.0305V14.7937Z" mask="url(#path-7-inside-1_2630_329)"/>
<mask id="path-9-inside-2_2630_329" fill="white">
<path d="M26.454 15.0938C26.454 15.0938 26.1582 15.0938 26.1582 15.4663V18.705C26.1582 18.705 26.1582 19.0781 26.454 19.0781H29.0208C29.0208 19.0781 29.3161 19.0781 29.3161 18.705V15.4663C29.3161 15.4663 29.3161 15.0938 29.0208 15.0938H26.454Z"/>
</mask>
<path d="M26.454 15.0938V14.7937H26.454L26.454 15.0938ZM26.1582 18.705H25.8582V18.705L26.1582 18.705ZM29.0208 19.0781L29.0208 18.7781H29.0208V19.0781ZM29.3161 15.4663L29.0161 15.4663V15.4663H29.3161ZM26.454 15.0938C26.454 14.7937 26.4538 14.7938 26.4536 14.7938C26.4535 14.7938 26.4533 14.7938 26.4532 14.7938C26.4529 14.7938 26.4527 14.7938 26.4524 14.7938C26.4519 14.7938 26.4513 14.7938 26.4507 14.7938C26.4496 14.7938 26.4483 14.7938 26.447 14.7938C26.4444 14.7939 26.4414 14.794 26.438 14.7941C26.4314 14.7944 26.4235 14.7949 26.4144 14.7957C26.3962 14.7973 26.373 14.8003 26.3461 14.806C26.2933 14.8171 26.2207 14.8395 26.1462 14.8865C25.9783 14.9922 25.8582 15.1852 25.8582 15.4663H26.4582C26.4582 15.4134 26.4685 15.3933 26.4696 15.3913C26.4702 15.39 26.4686 15.3925 26.466 15.3942C26.4654 15.3946 26.4667 15.3937 26.4694 15.3932C26.4703 15.393 26.4701 15.3931 26.4681 15.3933C26.4671 15.3934 26.4655 15.3935 26.4632 15.3936C26.4621 15.3936 26.4607 15.3937 26.4592 15.3937C26.4584 15.3937 26.4576 15.3937 26.4567 15.3937C26.4563 15.3937 26.4559 15.3937 26.4554 15.3937C26.4552 15.3937 26.4549 15.3937 26.4547 15.3937C26.4546 15.3937 26.4544 15.3937 26.4543 15.3937C26.4541 15.3937 26.454 15.3938 26.454 15.0938ZM25.8582 15.4663V18.705H26.4582V15.4663H25.8582ZM26.1582 18.705C25.8582 18.705 25.8582 18.7051 25.8582 18.7052C25.8582 18.7052 25.8582 18.7054 25.8582 18.7055C25.8582 18.7056 25.8582 18.7058 25.8582 18.706C25.8582 18.7063 25.8582 18.7067 25.8582 18.7071C25.8582 18.7079 25.8582 18.7089 25.8582 18.7099C25.8583 18.7119 25.8583 18.7143 25.8584 18.7171C25.8585 18.7226 25.8588 18.7296 25.8593 18.738C25.8602 18.7545 25.862 18.7766 25.8654 18.8026C25.8721 18.8529 25.8859 18.9254 25.9163 19.0021C25.9464 19.078 25.9985 19.1725 26.0899 19.2494C26.1867 19.3309 26.3109 19.3781 26.454 19.3781V18.7781C26.4491 18.7781 26.4624 18.7787 26.4761 18.7902C26.4843 18.7972 26.4809 18.7983 26.4741 18.781C26.4675 18.7644 26.4628 18.7436 26.4602 18.724C26.459 18.715 26.4585 18.7079 26.4583 18.704C26.4582 18.7022 26.4582 18.7012 26.4582 18.7012C26.4582 18.7013 26.4582 18.7016 26.4582 18.7022C26.4582 18.7025 26.4582 18.7029 26.4582 18.7033C26.4582 18.7036 26.4582 18.7038 26.4582 18.7041C26.4582 18.7042 26.4582 18.7044 26.4582 18.7045C26.4582 18.7046 26.4582 18.7047 26.4582 18.7047C26.4582 18.7049 26.4582 18.705 26.1582 18.705ZM26.454 19.3781H29.0208V18.7781H26.454V19.3781ZM29.0208 19.0781C29.0208 19.3781 29.021 19.3781 29.0212 19.3781C29.0212 19.3781 29.0214 19.3781 29.0216 19.3781C29.0218 19.3781 29.0221 19.3781 29.0223 19.3781C29.0229 19.3781 29.0234 19.3781 29.024 19.3781C29.0252 19.3781 29.0264 19.3781 29.0278 19.378C29.0304 19.378 29.0334 19.3779 29.0367 19.3778C29.0434 19.3775 29.0513 19.377 29.0605 19.3762C29.0786 19.3745 29.1019 19.3715 29.1288 19.3659C29.1816 19.3547 29.2542 19.3322 29.3287 19.2851C29.4964 19.1791 29.6161 18.986 29.6161 18.705H29.0161C29.0161 18.7582 29.0058 18.7785 29.0046 18.7807C29.0039 18.7821 29.0055 18.7796 29.0082 18.7779C29.0089 18.7774 29.0077 18.7782 29.0051 18.7787C29.0043 18.7789 29.0045 18.7788 29.0065 18.7786C29.0076 18.7785 29.0092 18.7784 29.0115 18.7783C29.0127 18.7782 29.014 18.7782 29.0155 18.7782C29.0163 18.7782 29.0171 18.7781 29.018 18.7781C29.0184 18.7781 29.0189 18.7781 29.0194 18.7781C29.0196 18.7781 29.0198 18.7781 29.0201 18.7781C29.0202 18.7781 29.0204 18.7781 29.0204 18.7781C29.0206 18.7781 29.0208 18.7781 29.0208 19.0781ZM29.6161 18.705V15.4663H29.0161V18.705H29.6161ZM29.3161 15.4663C29.6161 15.4663 29.6161 15.4662 29.6161 15.4661C29.6161 15.4661 29.6161 15.4659 29.6161 15.4659C29.6161 15.4657 29.6161 15.4655 29.6161 15.4653C29.6161 15.465 29.6161 15.4646 29.6161 15.4642C29.6161 15.4634 29.6161 15.4624 29.6161 15.4614C29.616 15.4594 29.616 15.457 29.6159 15.4542C29.6158 15.4487 29.6155 15.4417 29.615 15.4334C29.6141 15.4169 29.6123 15.3948 29.6089 15.3688C29.6023 15.3185 29.5885 15.2462 29.5581 15.1695C29.528 15.0936 29.476 14.9992 29.3846 14.9224C29.2878 14.841 29.1637 14.7937 29.0208 14.7937V15.3938C29.0255 15.3938 29.0121 15.3931 28.9984 15.3815C28.9901 15.3746 28.9935 15.3733 29.0003 15.3906C29.0068 15.4071 29.0115 15.4278 29.0141 15.4474C29.0153 15.4564 29.0158 15.4634 29.016 15.4673C29.0161 15.4692 29.0161 15.4701 29.0161 15.4701C29.0161 15.47 29.0161 15.4697 29.0161 15.4691C29.0161 15.4688 29.0161 15.4684 29.0161 15.4679C29.0161 15.4677 29.0161 15.4675 29.0161 15.4672C29.0161 15.4671 29.0161 15.4669 29.0161 15.4668C29.0161 15.4667 29.0161 15.4666 29.0161 15.4666C29.0161 15.4664 29.0161 15.4663 29.3161 15.4663ZM29.0208 14.7937H26.454V15.3938H29.0208V14.7937Z" mask="url(#path-9-inside-2_2630_329)"/>
<path d="M31.1911 15.2439C31.1917 15.2438 31.1922 15.2438 31.1926 15.2438H33.7572C33.7966 15.2438 33.8177 15.2551 33.8317 15.2668C33.8483 15.2808 33.8639 15.3035 33.8765 15.3354C33.889 15.3669 33.896 15.4006 33.8996 15.4278C33.9013 15.441 33.9022 15.4518 33.9026 15.4588L33.9029 15.4661L33.9029 15.467L33.9029 15.4667L33.9029 15.4665L33.9029 15.467V18.705C33.9029 18.8442 33.852 18.8876 33.825 18.9046C33.8068 18.9161 33.7877 18.9223 33.7725 18.9255C33.7651 18.9271 33.7595 18.9277 33.7564 18.928C33.756 18.928 33.7556 18.9281 33.7553 18.9281C33.7551 18.9281 33.755 18.9281 33.7549 18.9281H31.1903C31.1511 18.9281 31.1301 18.9168 31.1162 18.9051C31.0996 18.8911 31.0841 18.8684 31.0714 18.8364C31.0589 18.8047 31.0519 18.771 31.0483 18.7437C31.0466 18.7304 31.0458 18.7196 31.0454 18.7125L31.045 18.7052L31.045 18.7043L31.045 18.7046L31.045 18.7048L31.045 18.7049C31.045 18.7049 31.045 18.705 30.9006 18.705L31.045 18.705V18.7043V15.4663C31.045 15.3274 31.0958 15.2841 31.1227 15.2672C31.1408 15.2558 31.1599 15.2495 31.175 15.2464C31.1824 15.2448 31.188 15.2441 31.1911 15.2439Z"  stroke-width="0.3"/>
<mask id="path-12-inside-3_2630_329" fill="white">
<path d="M35.9276 15.0938C35.9276 15.0938 35.6318 15.0938 35.6318 15.4663V18.705C35.6318 18.705 35.6318 19.0781 35.9276 19.0781H38.4944C38.4944 19.0781 38.7897 19.0781 38.7897 18.705V15.4663C38.7897 15.4663 38.7897 15.0938 38.4944 15.0938H35.9276Z"/>
</mask>
<path d="M35.9276 15.0938V14.7937H35.9276L35.9276 15.0938ZM35.6318 18.705H35.3318V18.705L35.6318 18.705ZM38.4944 19.0781L38.4944 18.7781H38.4944V19.0781ZM38.7897 15.4663H39.0897V15.4663L38.7897 15.4663ZM35.9276 15.0938C35.9276 14.7937 35.9274 14.7938 35.9272 14.7938C35.9272 14.7938 35.927 14.7938 35.9268 14.7938C35.9266 14.7938 35.9263 14.7938 35.926 14.7938C35.9255 14.7938 35.925 14.7938 35.9244 14.7938C35.9232 14.7938 35.922 14.7938 35.9206 14.7938C35.918 14.7939 35.915 14.794 35.9117 14.7941C35.9051 14.7944 35.8971 14.7949 35.888 14.7957C35.8699 14.7973 35.8466 14.8003 35.8197 14.806C35.767 14.8171 35.6944 14.8395 35.6198 14.8865C35.452 14.9922 35.3318 15.1852 35.3318 15.4663H35.9318C35.9318 15.4134 35.9421 15.3933 35.9432 15.3913C35.9439 15.39 35.9422 15.3925 35.9396 15.3942C35.939 15.3946 35.9403 15.3937 35.943 15.3932C35.9439 15.393 35.9437 15.3931 35.9418 15.3933C35.9407 15.3934 35.9391 15.3935 35.9369 15.3936C35.9357 15.3936 35.9344 15.3937 35.9328 15.3937C35.9321 15.3937 35.9313 15.3937 35.9304 15.3937C35.9299 15.3937 35.9295 15.3937 35.929 15.3937C35.9288 15.3937 35.9286 15.3937 35.9283 15.3937C35.9282 15.3937 35.928 15.3937 35.928 15.3937C35.9278 15.3937 35.9276 15.3938 35.9276 15.0938ZM35.3318 15.4663V18.705H35.9318V15.4663H35.3318ZM35.6318 18.705C35.3318 18.705 35.3318 18.7051 35.3318 18.7052C35.3318 18.7052 35.3318 18.7054 35.3318 18.7055C35.3318 18.7056 35.3318 18.7058 35.3318 18.706C35.3318 18.7063 35.3318 18.7067 35.3318 18.7071C35.3318 18.7079 35.3319 18.7089 35.3319 18.7099C35.3319 18.7119 35.3319 18.7143 35.332 18.7171C35.3322 18.7226 35.3324 18.7296 35.3329 18.738C35.3338 18.7545 35.3356 18.7766 35.339 18.8026C35.3457 18.8529 35.3595 18.9254 35.3899 19.0021C35.42 19.078 35.4721 19.1725 35.5635 19.2494C35.6603 19.3309 35.7846 19.3781 35.9276 19.3781V18.7781C35.9227 18.7781 35.936 18.7787 35.9497 18.7902C35.9579 18.7972 35.9546 18.7983 35.9477 18.781C35.9411 18.7644 35.9365 18.7436 35.9339 18.724C35.9327 18.715 35.9322 18.7079 35.9319 18.704C35.9318 18.7022 35.9318 18.7012 35.9318 18.7012C35.9318 18.7013 35.9318 18.7016 35.9318 18.7022C35.9318 18.7025 35.9318 18.7029 35.9318 18.7033C35.9318 18.7036 35.9318 18.7038 35.9318 18.7041C35.9318 18.7042 35.9318 18.7044 35.9318 18.7045C35.9318 18.7046 35.9318 18.7047 35.9318 18.7047C35.9318 18.7049 35.9318 18.705 35.6318 18.705ZM35.9276 19.3781H38.4944V18.7781H35.9276V19.3781ZM38.4944 19.0781C38.4944 19.3781 38.4946 19.3781 38.4948 19.3781C38.4949 19.3781 38.4951 19.3781 38.4952 19.3781C38.4954 19.3781 38.4957 19.3781 38.496 19.3781C38.4965 19.3781 38.4971 19.3781 38.4977 19.3781C38.4988 19.3781 38.5001 19.3781 38.5014 19.378C38.5041 19.378 38.5071 19.3779 38.5104 19.3778C38.517 19.3775 38.525 19.377 38.5341 19.3762C38.5522 19.3745 38.5755 19.3715 38.6024 19.3659C38.6552 19.3547 38.7278 19.3322 38.8023 19.2851C38.9701 19.1791 39.0897 18.986 39.0897 18.705H38.4897C38.4897 18.7582 38.4794 18.7785 38.4783 18.7807C38.4775 18.7821 38.4791 18.7796 38.4818 18.7779C38.4825 18.7774 38.4813 18.7782 38.4787 18.7787C38.4779 18.7789 38.4782 18.7788 38.4802 18.7786C38.4812 18.7785 38.4828 18.7784 38.4851 18.7783C38.4863 18.7782 38.4876 18.7782 38.4892 18.7782C38.4899 18.7782 38.4908 18.7781 38.4916 18.7781C38.4921 18.7781 38.4925 18.7781 38.493 18.7781C38.4932 18.7781 38.4935 18.7781 38.4937 18.7781C38.4938 18.7781 38.494 18.7781 38.4941 18.7781C38.4943 18.7781 38.4944 18.7781 38.4944 19.0781ZM39.0897 18.705V15.4663H38.4897V18.705H39.0897ZM38.7897 15.4663C39.0897 15.4663 39.0897 15.4662 39.0897 15.4661C39.0897 15.4661 39.0897 15.4659 39.0897 15.4658C39.0897 15.4657 39.0897 15.4655 39.0897 15.4653C39.0897 15.465 39.0897 15.4646 39.0897 15.4642C39.0897 15.4634 39.0897 15.4624 39.0897 15.4614C39.0897 15.4594 39.0896 15.457 39.0896 15.4542C39.0894 15.4487 39.0891 15.4417 39.0887 15.4334C39.0877 15.4168 39.086 15.3948 39.0825 15.3688C39.0759 15.3185 39.0621 15.2461 39.0317 15.1695C39.0016 15.0936 38.9496 14.9992 38.8583 14.9224C38.7615 14.841 38.6373 14.7937 38.4944 14.7937V15.3938C38.4992 15.3938 38.4858 15.3931 38.472 15.3815C38.4638 15.3746 38.4671 15.3733 38.4739 15.3906C38.4805 15.4071 38.4851 15.4278 38.4877 15.4474C38.4889 15.4564 38.4894 15.4634 38.4896 15.4673C38.4897 15.4692 38.4898 15.4701 38.4898 15.4701C38.4898 15.47 38.4898 15.4697 38.4897 15.4691C38.4897 15.4688 38.4897 15.4684 38.4897 15.468C38.4897 15.4677 38.4897 15.4675 38.4897 15.4672C38.4897 15.4671 38.4897 15.4669 38.4897 15.4668C38.4897 15.4667 38.4897 15.4666 38.4897 15.4666C38.4897 15.4664 38.4897 15.4663 38.7897 15.4663ZM38.4944 14.7937H35.9276V15.3938H38.4944V14.7937Z" mask="url(#path-12-inside-3_2630_329)"/>
<mask id="path-14-inside-4_2630_329" fill="white">
<path d="M40.664 15.0938C40.664 15.0938 40.3687 15.0938 40.3687 15.4663V18.705C40.3687 18.705 40.3687 19.0781 40.664 19.0781H43.2308C43.2308 19.0781 43.5265 19.0781 43.5265 18.705V15.4663C43.5265 15.4663 43.5265 15.0938 43.2308 15.0938H40.664Z"/>
</mask>
<path d="M40.664 15.0938V14.7937H40.6639L40.664 15.0938ZM40.3687 18.705H40.0687V18.705L40.3687 18.705ZM43.2308 19.0781L43.2308 18.7781H43.2308V19.0781ZM43.5265 15.4663L43.2265 15.4663V15.4663H43.5265ZM40.664 15.0938C40.6639 14.7937 40.6638 14.7938 40.6636 14.7938C40.6635 14.7938 40.6633 14.7938 40.6632 14.7938C40.6629 14.7938 40.6627 14.7938 40.6624 14.7938C40.6619 14.7938 40.6613 14.7938 40.6607 14.7938C40.6596 14.7938 40.6583 14.7938 40.657 14.7938C40.6543 14.7939 40.6513 14.794 40.648 14.7941C40.6414 14.7944 40.6334 14.7949 40.6243 14.7957C40.6062 14.7973 40.5829 14.8003 40.5561 14.806C40.5033 14.8171 40.4307 14.8396 40.3562 14.8866C40.1885 14.9924 40.0687 15.1854 40.0687 15.4663H40.6687C40.6687 15.4133 40.6789 15.3932 40.68 15.3911C40.6807 15.3898 40.6791 15.3923 40.6764 15.3941C40.6757 15.3945 40.6769 15.3937 40.6795 15.3932C40.6804 15.393 40.6802 15.3931 40.6782 15.3933C40.6772 15.3934 40.6755 15.3935 40.6732 15.3936C40.6721 15.3936 40.6707 15.3937 40.6692 15.3937C40.6684 15.3937 40.6676 15.3937 40.6667 15.3937C40.6663 15.3937 40.6659 15.3937 40.6654 15.3937C40.6652 15.3937 40.6649 15.3937 40.6647 15.3937C40.6646 15.3937 40.6644 15.3937 40.6643 15.3937C40.6641 15.3937 40.664 15.3938 40.664 15.0938ZM40.0687 15.4663V18.705H40.6687V15.4663H40.0687ZM40.3687 18.705C40.0687 18.705 40.0687 18.7051 40.0687 18.7052C40.0687 18.7052 40.0687 18.7054 40.0687 18.7055C40.0687 18.7056 40.0687 18.7058 40.0687 18.706C40.0687 18.7063 40.0687 18.7067 40.0687 18.7071C40.0687 18.7079 40.0687 18.7089 40.0687 18.7099C40.0687 18.7119 40.0688 18.7143 40.0688 18.7171C40.069 18.7226 40.0692 18.7296 40.0697 18.7379C40.0706 18.7545 40.0724 18.7766 40.0758 18.8025C40.0825 18.8528 40.0963 18.9253 40.1266 19.0019C40.1566 19.0778 40.2086 19.1723 40.2999 19.2493C40.3967 19.3308 40.5209 19.3781 40.664 19.3781V18.7781C40.6593 18.7781 40.6728 18.7788 40.6865 18.7904C40.6948 18.7973 40.6914 18.7985 40.6845 18.7812C40.6779 18.7646 40.6733 18.7437 40.6707 18.724C40.6695 18.715 40.669 18.708 40.6688 18.7041C40.6686 18.7022 40.6686 18.7012 40.6686 18.7012C40.6686 18.7013 40.6686 18.7016 40.6686 18.7022C40.6686 18.7025 40.6686 18.7029 40.6686 18.7034C40.6686 18.7036 40.6687 18.7038 40.6687 18.7041C40.6687 18.7042 40.6687 18.7044 40.6687 18.7045C40.6687 18.7046 40.6687 18.7047 40.6687 18.7047C40.6687 18.7049 40.6687 18.705 40.3687 18.705ZM40.664 19.3781H43.2308V18.7781H40.664V19.3781ZM43.2308 19.0781C43.2308 19.3781 43.231 19.3781 43.2312 19.3781C43.2312 19.3781 43.2314 19.3781 43.2316 19.3781C43.2318 19.3781 43.2321 19.3781 43.2323 19.3781C43.2329 19.3781 43.2334 19.3781 43.234 19.3781C43.2352 19.3781 43.2364 19.3781 43.2377 19.378C43.2404 19.378 43.2434 19.3779 43.2467 19.3778C43.2533 19.3775 43.2613 19.377 43.2704 19.3762C43.2886 19.3745 43.3119 19.3715 43.3387 19.3659C43.3915 19.3548 43.4642 19.3323 43.5387 19.2852C43.7066 19.1793 43.8265 18.9862 43.8265 18.705H43.2265C43.2265 18.7581 43.2162 18.7784 43.2151 18.7805C43.2144 18.7819 43.2159 18.7794 43.2186 18.7778C43.2192 18.7773 43.2179 18.7782 43.2153 18.7787C43.2144 18.7789 43.2146 18.7788 43.2166 18.7786C43.2176 18.7785 43.2192 18.7784 43.2215 18.7783C43.2227 18.7782 43.224 18.7782 43.2255 18.7782C43.2263 18.7782 43.2271 18.7781 43.228 18.7781C43.2284 18.7781 43.2289 18.7781 43.2294 18.7781C43.2296 18.7781 43.2298 18.7781 43.2301 18.7781C43.2302 18.7781 43.2304 18.7781 43.2304 18.7781C43.2306 18.7781 43.2308 18.7781 43.2308 19.0781ZM43.8265 18.705V15.4663H43.2265V18.705H43.8265ZM43.5265 15.4663C43.8265 15.4663 43.8265 15.4662 43.8265 15.4661C43.8265 15.4661 43.8265 15.4659 43.8265 15.4659C43.8265 15.4657 43.8265 15.4655 43.8265 15.4653C43.8265 15.465 43.8265 15.4646 43.8265 15.4642C43.8265 15.4634 43.8265 15.4624 43.8265 15.4614C43.8265 15.4594 43.8264 15.457 43.8264 15.4542C43.8262 15.4487 43.826 15.4417 43.8255 15.4333C43.8246 15.4168 43.8228 15.3947 43.8193 15.3688C43.8127 15.3184 43.7988 15.246 43.7684 15.1694C43.7383 15.0934 43.6862 14.999 43.5947 14.9222C43.4979 14.8409 43.3737 14.7937 43.2308 14.7937V15.3938C43.2358 15.3938 43.2225 15.3932 43.2088 15.3817C43.2006 15.3748 43.2039 15.3735 43.2107 15.3907C43.2173 15.4072 43.2219 15.4279 43.2245 15.4475C43.2257 15.4564 43.2262 15.4635 43.2264 15.4673C43.2266 15.4692 43.2266 15.4702 43.2266 15.4701C43.2266 15.47 43.2266 15.4697 43.2266 15.4691C43.2266 15.4688 43.2266 15.4684 43.2266 15.468C43.2265 15.4677 43.2265 15.4675 43.2265 15.4672C43.2265 15.4671 43.2265 15.4669 43.2265 15.4668C43.2265 15.4667 43.2265 15.4666 43.2265 15.4666C43.2265 15.4664 43.2265 15.4663 43.5265 15.4663ZM43.2308 14.7937H40.664V15.3938H43.2308V14.7937Z" mask="url(#path-14-inside-4_2630_329)"/>
<path d="M45.4188 15.2439L45.4216 15.2438H52.6865C52.7328 15.2438 52.7584 15.2566 52.7748 15.2696C52.7934 15.2843 52.8097 15.3072 52.8228 15.3382C52.8358 15.3692 52.843 15.4022 52.8468 15.429C52.8486 15.4419 52.8495 15.4525 52.8499 15.4593L52.8502 15.4664L52.8502 15.4671L52.8502 15.4668L52.8502 15.4666L52.8502 15.4671V18.705C52.8502 18.8401 52.7984 18.8837 52.7667 18.9026C52.746 18.9149 52.724 18.9217 52.7064 18.9252C52.6978 18.9268 52.6912 18.9276 52.6873 18.9279L52.6845 18.9281H45.4196C45.3732 18.9281 45.3475 18.9152 45.3311 18.9022C45.3124 18.8874 45.2961 18.8645 45.283 18.8333C45.2699 18.8023 45.2627 18.7692 45.2589 18.7424C45.2571 18.7294 45.2562 18.7188 45.2558 18.712L45.2555 18.705L45.2555 18.7042L45.2555 18.7045L45.2555 18.7047L45.2555 18.7048C45.2555 18.7049 45.2555 18.705 45.1124 18.705L45.2555 18.705V18.7042V15.4663C45.2555 15.3317 45.3072 15.2882 45.3391 15.2693C45.3599 15.257 45.3819 15.2502 45.3996 15.2467C45.4082 15.245 45.4149 15.2443 45.4188 15.2439Z"  stroke-width="0.3"/>
<path d="M19.3465 10.4627L19.35 10.4625H21.9149C21.9624 10.4625 21.988 10.474 22.0022 10.4836C22.0175 10.4938 22.0296 10.5086 22.0393 10.5282C22.0493 10.5483 22.055 10.5703 22.058 10.5885C22.0595 10.5972 22.0601 10.6042 22.0604 10.6084L22.0606 10.612V13.2015C22.0606 13.2501 22.049 13.2767 22.0393 13.2914C22.029 13.307 22.0142 13.3192 21.9952 13.3288C21.9755 13.3387 21.954 13.3444 21.9362 13.3474C21.9277 13.3489 21.9209 13.3495 21.9168 13.3498L21.9134 13.35H19.3484C19.3011 13.35 19.2755 13.3385 19.2612 13.3289C19.246 13.3187 19.2338 13.3038 19.2241 13.2842C19.2141 13.264 19.2084 13.2419 19.2054 13.2237C19.2039 13.2149 19.2032 13.2079 19.2029 13.2037L19.2027 13.2V10.6106C19.2027 10.5621 19.2144 10.5357 19.224 10.521C19.2343 10.5054 19.249 10.4933 19.2681 10.4837C19.2878 10.4738 19.3093 10.4681 19.3271 10.4651C19.3356 10.4636 19.3424 10.463 19.3465 10.4627Z"  stroke-width="0.3"/>
<path d="M14.6097 10.4627L14.6131 10.4625H17.1781C17.2255 10.4625 17.2512 10.474 17.2654 10.4836C17.2806 10.4938 17.2928 10.5086 17.3025 10.5282C17.3125 10.5483 17.3182 10.5703 17.3212 10.5885C17.3226 10.5972 17.3233 10.6042 17.3236 10.6084L17.3238 10.612V13.2015C17.3238 13.2501 17.3122 13.2767 17.3024 13.2914C17.2921 13.307 17.2774 13.3192 17.2584 13.3288C17.2387 13.3387 17.2172 13.3444 17.1994 13.3474C17.1909 13.3489 17.1841 13.3495 17.18 13.3498L17.1766 13.35H14.6116C14.5642 13.35 14.5387 13.3385 14.5244 13.3289C14.5092 13.3187 14.497 13.3038 14.4873 13.2842C14.4773 13.264 14.4715 13.2419 14.4685 13.2237C14.4671 13.2149 14.4664 13.2079 14.4661 13.2037L14.4659 13.2V10.6106C14.4659 10.5621 14.4775 10.5357 14.4872 10.521C14.4975 10.5054 14.5122 10.4933 14.5313 10.4837C14.551 10.4738 14.5725 10.4681 14.5903 10.4651C14.5988 10.4636 14.6056 10.463 14.6097 10.4627Z"  stroke-width="0.3"/>
<path d="M7.51787 10.4627L7.52219 10.4625H12.4263C12.4789 10.4625 12.5083 10.4748 12.5249 10.4854C12.5422 10.4965 12.555 10.5118 12.5649 10.5308C12.5752 10.5505 12.5811 10.572 12.5841 10.5897C12.5856 10.5982 12.5863 10.6049 12.5866 10.6089L12.5868 10.6122V13.2015C12.5868 13.2486 12.575 13.2741 12.565 13.2886C12.5541 13.3043 12.538 13.3172 12.5165 13.3275C12.4946 13.338 12.4707 13.3441 12.451 13.3472C12.4416 13.3487 12.434 13.3494 12.4293 13.3498L12.425 13.35H7.52095C7.4684 13.35 7.43901 13.3377 7.42239 13.3271C7.4051 13.316 7.39226 13.3006 7.38234 13.2815C7.37205 13.2617 7.36617 13.2402 7.3631 13.2225C7.36162 13.214 7.36094 13.2072 7.36064 13.2032L7.36045 13.1999V10.6106C7.36045 10.5636 7.37217 10.5382 7.38217 10.5238C7.39304 10.5082 7.40909 10.4953 7.43061 10.485C7.45257 10.4744 7.47643 10.4684 7.49613 10.4653C7.50562 10.4638 7.51321 10.4631 7.51787 10.4627Z"  stroke-width="0.3"/>
<path d="M24.0833 10.4627L24.0868 10.4625H26.6517C26.6992 10.4625 26.7248 10.474 26.739 10.4836C26.7543 10.4938 26.7664 10.5086 26.7761 10.5282C26.7861 10.5483 26.7918 10.5703 26.7948 10.5885C26.7963 10.5972 26.7969 10.6042 26.7972 10.6084L26.7974 10.612V13.2015C26.7974 13.2501 26.7858 13.2767 26.7761 13.2914C26.7658 13.307 26.7511 13.3192 26.732 13.3288C26.7123 13.3387 26.6908 13.3444 26.673 13.3474C26.6645 13.3489 26.6577 13.3495 26.6537 13.3498L26.6502 13.35H24.0853C24.0379 13.35 24.0123 13.3385 23.9981 13.3289C23.9828 13.3187 23.9707 13.3038 23.9609 13.2842C23.9509 13.264 23.9452 13.2419 23.9422 13.2237C23.9407 13.2149 23.9401 13.2079 23.9398 13.2037L23.9396 13.2V10.6106C23.9396 10.5621 23.9512 10.5357 23.9609 10.521C23.9711 10.5054 23.9858 10.4933 24.0049 10.4837C24.0246 10.4738 24.0461 10.4681 24.0639 10.4651C24.0725 10.4636 24.0793 10.463 24.0833 10.4627Z"  stroke-width="0.3"/>
<path d="M28.8198 10.4627L28.8232 10.4625H31.3885C31.436 10.4625 31.4616 10.474 31.4758 10.4836C31.4911 10.4938 31.5032 10.5086 31.5129 10.5282C31.5229 10.5483 31.5286 10.5703 31.5317 10.5885C31.5331 10.5972 31.5338 10.6042 31.5341 10.6084L31.5343 10.612V13.2015C31.5343 13.2501 31.5226 13.2767 31.5129 13.2914C31.5026 13.307 31.4879 13.3191 31.4688 13.3288C31.4491 13.3387 31.4276 13.3444 31.4098 13.3474C31.4013 13.3489 31.3945 13.3495 31.3904 13.3498L31.387 13.35H28.8217C28.7744 13.35 28.7489 13.3385 28.7348 13.329C28.7196 13.3187 28.7075 13.3039 28.6977 13.2842C28.6877 13.264 28.682 13.242 28.679 13.2237C28.6775 13.2149 28.6769 13.2079 28.6766 13.2037L28.6764 13.2001V10.6106C28.6764 10.562 28.688 10.5356 28.6977 10.5209C28.7079 10.5054 28.7226 10.4933 28.7416 10.4837C28.7612 10.4738 28.7826 10.4681 28.8004 10.4651C28.8089 10.4636 28.8157 10.463 28.8198 10.4627Z"  stroke-width="0.3"/>
<path d="M33.557 10.4627L33.5604 10.4625H36.1258C36.1731 10.4625 36.1986 10.474 36.2128 10.4835C36.2279 10.4937 36.2401 10.5085 36.2498 10.5281C36.2597 10.5482 36.2655 10.5702 36.2685 10.5884C36.2699 10.5972 36.2706 10.6041 36.2709 10.6083L36.2711 10.612V13.2015C36.2711 13.2502 36.2594 13.2767 36.2497 13.2915C36.2394 13.3071 36.2248 13.3192 36.2058 13.3288C36.1861 13.3387 36.1647 13.3444 36.147 13.3474C36.1385 13.3489 36.1317 13.3495 36.1277 13.3498L36.1243 13.35H33.5589C33.5115 13.35 33.4859 13.3385 33.4717 13.3289C33.4565 13.3186 33.4443 13.3038 33.4346 13.2842C33.4246 13.264 33.4188 13.2419 33.4158 13.2237C33.4144 13.2149 33.4137 13.2079 33.4134 13.2037L33.4132 13.2V10.6106C33.4132 10.5621 33.4248 10.5357 33.4345 10.521C33.4448 10.5055 33.4595 10.4933 33.4786 10.4837C33.4983 10.4738 33.5197 10.4681 33.5376 10.4651C33.5461 10.4636 33.5529 10.463 33.557 10.4627Z"  stroke-width="0.3"/>
<mask id="path-23-inside-5_2630_329" fill="white">
<path d="M38.3691 10.3125C38.3691 10.3125 38 10.3125 38 10.6106V13.2015C38 13.2015 38 13.5 38.3691 13.5H41.5777C41.5777 13.5 41.9474 13.5 41.9474 13.2015V10.6106C41.9474 10.6106 41.9474 10.3125 41.5777 10.3125H38.3691Z"/>
</mask>
<path d="M38.3691 10.3125L38.3691 10.6125H38.3691V10.3125ZM38 13.2015H37.7V13.2015L38 13.2015ZM41.5777 13.5L41.5777 13.2H41.5777V13.5ZM41.9474 10.6106L41.6474 10.6106V10.6106H41.9474ZM38.3691 10.3125C38.3691 10.0125 38.369 10.0125 38.3689 10.0125C38.3688 10.0125 38.3687 10.0125 38.3686 10.0125C38.3685 10.0125 38.3683 10.0125 38.3681 10.0125C38.3677 10.0125 38.3673 10.0125 38.3669 10.0125C38.3661 10.0125 38.3652 10.0125 38.3642 10.0125C38.3621 10.0126 38.3597 10.0126 38.3569 10.0127C38.3513 10.0128 38.3443 10.0131 38.336 10.0136C38.3194 10.0145 38.2974 10.0163 38.2714 10.0198C38.2212 10.0266 38.1488 10.0407 38.0722 10.0716C37.9962 10.1023 37.9024 10.1551 37.8263 10.2472C37.746 10.3445 37.7 10.4685 37.7 10.6106H38.3C38.3 10.6036 38.3001 10.6158 38.289 10.6292C38.2822 10.6375 38.2806 10.6345 38.2969 10.6279C38.3126 10.6216 38.3325 10.617 38.3515 10.6145C38.3601 10.6133 38.3669 10.6128 38.3705 10.6126C38.3723 10.6125 38.3732 10.6125 38.373 10.6125C38.373 10.6125 38.3726 10.6125 38.372 10.6125C38.3716 10.6125 38.3713 10.6125 38.3708 10.6125C38.3705 10.6125 38.3703 10.6125 38.37 10.6125C38.3699 10.6125 38.3697 10.6125 38.3696 10.6125C38.3695 10.6125 38.3694 10.6125 38.3694 10.6125C38.3692 10.6125 38.3691 10.6125 38.3691 10.3125ZM37.7 10.6106V13.2015H38.3V10.6106H37.7ZM38 13.2015C37.7 13.2015 37.7 13.2017 37.7 13.2018C37.7 13.2019 37.7 13.2021 37.7 13.2022C37.7 13.2025 37.7 13.2027 37.7 13.203C37.7 13.2035 37.7 13.2041 37.7 13.2046C37.7 13.2058 37.7 13.207 37.7001 13.2083C37.7001 13.2109 37.7002 13.2139 37.7003 13.2172C37.7006 13.2237 37.7011 13.2316 37.7019 13.2407C37.7035 13.2587 37.7064 13.2819 37.7119 13.3087C37.7228 13.3612 37.7448 13.4338 37.791 13.5085C37.8951 13.677 38.0871 13.8 38.3691 13.8V13.2C38.3179 13.2 38.2992 13.1899 38.2981 13.1893C38.2976 13.189 38.3 13.1909 38.3013 13.193C38.3014 13.1931 38.3003 13.191 38.2996 13.1876C38.2993 13.1863 38.2994 13.1862 38.2996 13.1879C38.2996 13.1888 38.2997 13.1903 38.2998 13.1925C38.2999 13.1936 38.2999 13.1949 38.3 13.1963C38.3 13.1971 38.3 13.1979 38.3 13.1987C38.3 13.1992 38.3 13.1996 38.3 13.2001C38.3 13.2003 38.3 13.2005 38.3 13.2008C38.3 13.2009 38.3 13.2011 38.3 13.2011C38.3 13.2013 38.3 13.2015 38 13.2015ZM38.3691 13.8H41.5777V13.2H38.3691V13.8ZM41.5777 13.5C41.5777 13.8 41.5778 13.8 41.5779 13.8C41.578 13.8 41.5781 13.8 41.5782 13.8C41.5783 13.8 41.5785 13.8 41.5787 13.8C41.5791 13.8 41.5795 13.8 41.5799 13.8C41.5807 13.8 41.5816 13.8 41.5827 13.8C41.5847 13.7999 41.5871 13.7999 41.5899 13.7998C41.5955 13.7997 41.6025 13.7994 41.6108 13.7989C41.6274 13.798 41.6495 13.7961 41.6755 13.7927C41.7258 13.7859 41.7982 13.7718 41.8748 13.7409C41.9509 13.7102 42.0448 13.6572 42.121 13.5651C42.2013 13.4677 42.2474 13.3437 42.2474 13.2015H41.6474C41.6474 13.2085 41.6472 13.1965 41.6583 13.1831C41.6651 13.1748 41.6666 13.1779 41.6502 13.1845C41.6344 13.1909 41.6144 13.1955 41.5954 13.198C41.5867 13.1992 41.58 13.1997 41.5763 13.1999C41.5745 13.2 41.5736 13.2 41.5738 13.2C41.5738 13.2 41.5742 13.2 41.5748 13.2C41.5752 13.2 41.5756 13.2 41.576 13.2C41.5763 13.2 41.5765 13.2 41.5768 13.2C41.5769 13.2 41.5771 13.2 41.5772 13.2C41.5773 13.2 41.5774 13.2 41.5775 13.2C41.5776 13.2 41.5777 13.2 41.5777 13.5ZM42.2474 13.2015V10.6106H41.6474V13.2015H42.2474ZM41.9474 10.6106C42.2474 10.6106 42.2474 10.6104 42.2474 10.6102C42.2474 10.6101 42.2474 10.61 42.2474 10.6098C42.2474 10.6096 42.2474 10.6093 42.2474 10.609C42.2474 10.6085 42.2474 10.608 42.2474 10.6074C42.2473 10.6063 42.2473 10.605 42.2473 10.6037C42.2473 10.6011 42.2472 10.5981 42.247 10.5948C42.2468 10.5883 42.2463 10.5804 42.2455 10.5713C42.2439 10.5533 42.2409 10.53 42.2354 10.5033C42.2245 10.4507 42.2024 10.3781 42.1561 10.3034C42.0517 10.1351 41.8595 10.0125 41.5777 10.0125V10.6125C41.6292 10.6125 41.6481 10.6226 41.6494 10.6233C41.65 10.6236 41.6476 10.6218 41.6462 10.6196C41.6461 10.6195 41.6471 10.6214 41.6478 10.6247C41.6481 10.6259 41.648 10.626 41.6478 10.6242C41.6477 10.6233 41.6476 10.6218 41.6475 10.6196C41.6475 10.6185 41.6475 10.6172 41.6474 10.6157C41.6474 10.615 41.6474 10.6142 41.6474 10.6133C41.6474 10.6129 41.6474 10.6124 41.6474 10.612C41.6474 10.6117 41.6474 10.6115 41.6474 10.6113C41.6474 10.6112 41.6474 10.611 41.6474 10.6109C41.6474 10.6107 41.6474 10.6106 41.9474 10.6106ZM41.5777 10.0125H38.3691V10.6125H41.5777V10.0125Z" mask="url(#path-23-inside-5_2630_329)"/>
<path d="M43.8202 10.4627L43.8236 10.4625H46.389C46.4363 10.4625 46.4618 10.474 46.4759 10.4835C46.4911 10.4937 46.5032 10.5085 46.5129 10.5281C46.5229 10.5482 46.5287 10.5702 46.5317 10.5884C46.5331 10.5972 46.5338 10.6041 46.5341 10.6083L46.5343 10.612V13.2015C46.5343 13.2502 46.5226 13.2767 46.5129 13.2915C46.5026 13.3071 46.4879 13.3192 46.469 13.3288C46.4493 13.3387 46.4279 13.3444 46.4102 13.3474C46.4017 13.3489 46.3949 13.3495 46.3909 13.3498L46.3875 13.35H43.8221C43.7747 13.35 43.7491 13.3385 43.7349 13.3289C43.7196 13.3186 43.7075 13.3038 43.6977 13.2842C43.6877 13.264 43.682 13.2419 43.679 13.2237C43.6775 13.2149 43.6769 13.2079 43.6766 13.2037L43.6764 13.2V10.6106C43.6764 10.5621 43.688 10.5357 43.6977 10.521C43.708 10.5055 43.7227 10.4933 43.7417 10.4837C43.7614 10.4738 43.7829 10.4681 43.8008 10.4651C43.8093 10.4636 43.8161 10.463 43.8202 10.4627Z"  stroke-width="0.3"/>
<path d="M48.553 10.4627L48.5562 10.4625H52.7082C52.7542 10.4625 52.7789 10.4738 52.7925 10.4831C52.8072 10.4931 52.8192 10.5078 52.8288 10.5275C52.8387 10.5477 52.8444 10.5698 52.8474 10.5882C52.8489 10.597 52.8495 10.604 52.8498 10.6082L52.85 10.612V13.2015C52.85 13.2505 52.8384 13.2773 52.8288 13.2922C52.8186 13.3078 52.8042 13.3197 52.7858 13.3291C52.7667 13.3389 52.7459 13.3445 52.7286 13.3475C52.7203 13.3489 52.7137 13.3495 52.7098 13.3498L52.7066 13.35H48.5546C48.5087 13.35 48.4843 13.3387 48.4707 13.3295C48.4561 13.3195 48.4441 13.3048 48.4344 13.2849C48.4245 13.2646 48.4188 13.2424 48.4158 13.224C48.4144 13.2152 48.4137 13.2081 48.4134 13.2039L48.4132 13.2001V10.6106C48.4132 10.5616 48.4248 10.5349 48.4344 10.5202C48.4445 10.5046 48.4588 10.4927 48.4772 10.4833C48.4962 10.4736 48.517 10.468 48.5343 10.465C48.5425 10.4636 48.5491 10.463 48.553 10.4627Z"  stroke-width="0.3"/>
<path d="M31.1884 5.68144L31.1918 5.68125H33.7576C33.8049 5.68125 33.8303 5.69274 33.8445 5.70228C33.8597 5.71251 33.8718 5.72736 33.8816 5.747C33.8915 5.76719 33.8973 5.78923 33.9003 5.8075C33.9017 5.81627 33.9024 5.82326 33.9027 5.82748L33.9029 5.83115V8.42027C33.9029 8.46897 33.8913 8.4955 33.8816 8.51024C33.8713 8.52584 33.8566 8.53797 33.8376 8.54757C33.818 8.55748 33.7966 8.56318 33.7788 8.56617C33.7703 8.56761 33.7635 8.56826 33.7595 8.56856L33.7561 8.56875H31.1903C31.1431 8.56875 31.1176 8.55726 31.1034 8.54772C31.0882 8.53749 31.0761 8.52264 31.0664 8.503C31.0564 8.48281 31.0506 8.46077 31.0476 8.4425C31.0462 8.43373 31.0455 8.42673 31.0452 8.42252L31.045 8.41885V5.82973C31.045 5.78103 31.0567 5.7545 31.0664 5.73976C31.0767 5.72416 31.0913 5.71203 31.1103 5.70243C31.1299 5.69252 31.1513 5.68682 31.1691 5.68383C31.1776 5.68239 31.1844 5.68174 31.1884 5.68144Z"  stroke-width="0.3"/>
<path d="M26.4516 5.68144L26.455 5.68125H29.0208C29.068 5.68125 29.0935 5.69274 29.1077 5.70228C29.1229 5.71251 29.135 5.72736 29.1447 5.747C29.1547 5.76719 29.1605 5.78923 29.1635 5.8075C29.1649 5.81627 29.1656 5.82326 29.1659 5.82748L29.1661 5.83115V8.42027C29.1661 8.46897 29.1545 8.4955 29.1447 8.51024C29.1345 8.52584 29.1198 8.53797 29.1008 8.54757C29.0812 8.55748 29.0598 8.56318 29.042 8.56617C29.0335 8.56761 29.0267 8.56826 29.0227 8.56856L29.0193 8.56875H26.4535C26.4063 8.56875 26.3808 8.55726 26.3666 8.54772C26.3514 8.53749 26.3393 8.52264 26.3296 8.503C26.3196 8.48281 26.3138 8.46077 26.3108 8.4425C26.3094 8.43373 26.3087 8.42673 26.3084 8.42252L26.3082 8.41885V5.82973C26.3082 5.78103 26.3198 5.7545 26.3296 5.73976C26.3399 5.72416 26.3545 5.71203 26.3735 5.70243C26.3931 5.69252 26.4145 5.68682 26.4323 5.68383C26.4408 5.68239 26.4476 5.68174 26.4516 5.68144Z"  stroke-width="0.3"/>
<path d="M21.7152 5.68144L21.7187 5.68125H24.284C24.3312 5.68125 24.3567 5.69274 24.3709 5.70228C24.3861 5.71251 24.3982 5.72736 24.4079 5.747C24.4179 5.76719 24.4236 5.78923 24.4267 5.8075C24.4281 5.81627 24.4288 5.82326 24.4291 5.82748L24.4293 5.83115V8.42027C24.4293 8.46897 24.4176 8.4955 24.4079 8.51024C24.3976 8.52584 24.383 8.53797 24.364 8.54757C24.3444 8.55748 24.323 8.56318 24.3052 8.56617C24.2967 8.56761 24.2899 8.56826 24.2859 8.56856L24.2825 8.56875H21.7171C21.6697 8.56875 21.6441 8.55724 21.6299 8.54766C21.6146 8.5374 21.6025 8.52254 21.5928 8.50292C21.5828 8.48274 21.577 8.46072 21.574 8.44247C21.5726 8.4337 21.5719 8.42671 21.5716 8.4225L21.5714 8.41884V5.82973C21.5714 5.78108 21.583 5.75458 21.5928 5.73985C21.6031 5.72425 21.6178 5.7121 21.6368 5.70248C21.6565 5.69254 21.678 5.68683 21.6958 5.68384C21.7044 5.6824 21.7112 5.68174 21.7152 5.68144Z"  stroke-width="0.3"/>
<path d="M16.9784 5.68144L16.9818 5.68125H19.5472C19.5944 5.68125 19.6199 5.69274 19.6341 5.70228C19.6492 5.71251 19.6614 5.72736 19.6711 5.747C19.6811 5.76719 19.6868 5.78923 19.6898 5.8075C19.6913 5.81627 19.692 5.82326 19.6923 5.82748L19.6925 5.83115V8.42027C19.6925 8.46897 19.6808 8.4955 19.6711 8.51024C19.6608 8.52584 19.6462 8.53797 19.6272 8.54757C19.6075 8.55748 19.5861 8.56318 19.5684 8.56617C19.5599 8.56761 19.5531 8.56826 19.5491 8.56856L19.5457 8.56875H16.9803C16.9329 8.56875 16.9073 8.55724 16.8931 8.54766C16.8778 8.5374 16.8657 8.52254 16.8559 8.50292C16.8459 8.48274 16.8402 8.46072 16.8372 8.44247C16.8357 8.4337 16.8351 8.42671 16.8348 8.4225L16.8346 8.41884V5.82973C16.8346 5.78108 16.8462 5.75458 16.8559 5.73985C16.8662 5.72425 16.881 5.7121 16.9 5.70248C16.9197 5.69254 16.9412 5.68683 16.959 5.68384C16.9675 5.6824 16.9743 5.68174 16.9784 5.68144Z"  stroke-width="0.3"/>
<path d="M12.2415 5.68144L12.245 5.68125H14.8099C14.8573 5.68125 14.8829 5.69276 14.8971 5.70234C14.9124 5.71259 14.9245 5.72745 14.9343 5.74707C14.9443 5.76726 14.95 5.78928 14.953 5.80753C14.9545 5.8163 14.9551 5.82328 14.9554 5.82749L14.9556 5.83116V8.42027C14.9556 8.46893 14.944 8.49543 14.9343 8.51016C14.924 8.52576 14.9093 8.53791 14.8902 8.54753C14.8705 8.55746 14.8491 8.56317 14.8313 8.56616C14.8227 8.5676 14.8159 8.56826 14.8119 8.56856L14.8084 8.56875H12.2435C12.1961 8.56875 12.1705 8.55724 12.1562 8.54766C12.141 8.53741 12.1289 8.52255 12.1191 8.50293C12.1091 8.48274 12.1034 8.46072 12.1004 8.44247C12.0989 8.4337 12.0983 8.42672 12.098 8.42251L12.0978 8.41884V5.82973C12.0978 5.78107 12.1094 5.75457 12.1191 5.73984C12.1294 5.72424 12.1441 5.71209 12.1632 5.70247C12.1829 5.69254 12.2043 5.68683 12.2221 5.68384C12.2307 5.6824 12.2375 5.68174 12.2415 5.68144Z"  stroke-width="0.3"/>
<path d="M7.50424 5.68144L7.50767 5.68125H10.0726C10.12 5.68125 10.1456 5.69276 10.1598 5.70234C10.1751 5.71259 10.1872 5.72745 10.197 5.74707C10.207 5.76726 10.2127 5.78928 10.2157 5.80753C10.2172 5.8163 10.2178 5.82328 10.2181 5.82749L10.2183 5.83116V8.42027C10.2183 8.46893 10.2067 8.49543 10.197 8.51016C10.1867 8.52576 10.172 8.53791 10.1529 8.54753C10.1332 8.55746 10.1118 8.56317 10.094 8.56616C10.0854 8.5676 10.0786 8.56826 10.0746 8.56856L10.0711 8.56875H7.50616C7.45877 8.56875 7.43318 8.55724 7.41894 8.54766C7.40371 8.53741 7.39155 8.52255 7.38183 8.50293C7.37183 8.48274 7.36608 8.46072 7.36307 8.44247C7.36162 8.4337 7.36095 8.42672 7.36065 8.4225L7.36045 8.41884V5.82973C7.36045 5.78107 7.37209 5.75457 7.38182 5.73984C7.39212 5.72424 7.40683 5.71209 7.42589 5.70247C7.44557 5.69254 7.46704 5.68683 7.48484 5.68384C7.49339 5.6824 7.50018 5.68174 7.50424 5.68144Z"  stroke-width="0.3"/>
<path d="M35.9252 5.68144L35.9287 5.68125H38.494C38.5414 5.68125 38.567 5.69276 38.5812 5.70234C38.5965 5.7126 38.6086 5.72746 38.6184 5.74708C38.6284 5.76726 38.6341 5.78928 38.6371 5.80753C38.6386 5.8163 38.6392 5.82329 38.6395 5.8275L38.6397 5.83116V8.42027C38.6397 8.46892 38.6281 8.49542 38.6184 8.51015C38.6081 8.52575 38.5933 8.5379 38.5743 8.54752C38.5546 8.55746 38.5331 8.56317 38.5153 8.56616C38.5068 8.5676 38.5 8.56826 38.4959 8.56856L38.4925 8.56875H35.9271C35.8799 8.56875 35.8544 8.55726 35.8402 8.54772C35.8251 8.53749 35.8129 8.52264 35.8032 8.503C35.7932 8.48281 35.7875 8.46077 35.7845 8.4425C35.783 8.43373 35.7823 8.42673 35.782 8.42252L35.7818 8.41885V5.82973C35.7818 5.78103 35.7935 5.7545 35.8032 5.73976C35.8135 5.72416 35.8282 5.71203 35.8471 5.70243C35.8668 5.69252 35.8882 5.68682 35.9059 5.68383C35.9144 5.68239 35.9212 5.68174 35.9252 5.68144Z"  stroke-width="0.3"/>
<path d="M40.6625 5.68144L40.6659 5.68125H43.2308C43.2782 5.68125 43.3038 5.69276 43.318 5.70234C43.3333 5.7126 43.3454 5.72746 43.3552 5.74708C43.3652 5.76726 43.3709 5.78928 43.3739 5.80753C43.3754 5.8163 43.376 5.82329 43.3763 5.8275L43.3765 5.83116V8.42027C43.3765 8.46892 43.3649 8.49542 43.3552 8.51015C43.3449 8.52575 43.3302 8.5379 43.3111 8.54752C43.2914 8.55746 43.2699 8.56317 43.2521 8.56616C43.2436 8.5676 43.2368 8.56826 43.2327 8.56856L43.2293 8.56875H40.6644C40.617 8.56875 40.5914 8.55724 40.5772 8.54766C40.5619 8.5374 40.5498 8.52254 40.54 8.50292C40.53 8.48274 40.5243 8.46072 40.5213 8.44246C40.5198 8.4337 40.5192 8.42671 40.5189 8.4225L40.5187 8.41884V5.82973C40.5187 5.78108 40.5303 5.75458 40.54 5.73985C40.5503 5.72425 40.565 5.7121 40.5841 5.70248C40.6038 5.69254 40.6253 5.68683 40.6431 5.68384C40.6516 5.6824 40.6584 5.68174 40.6625 5.68144Z"  stroke-width="0.3"/>
<path d="M45.3993 5.68144L45.4027 5.68125H47.9676C48.015 5.68125 48.0406 5.69276 48.0549 5.70234C48.0701 5.7126 48.0823 5.72746 48.092 5.74708C48.102 5.76726 48.1077 5.78928 48.1107 5.80753C48.1122 5.8163 48.1129 5.82329 48.1132 5.8275L48.1134 5.83116V8.42027C48.1134 8.46892 48.1017 8.49542 48.092 8.51015C48.0817 8.52575 48.067 8.5379 48.0479 8.54752C48.0282 8.55746 48.0067 8.56317 47.9889 8.56616C47.9804 8.5676 47.9736 8.56826 47.9695 8.56856L47.9661 8.56875H45.4012C45.3538 8.56875 45.3282 8.55724 45.314 8.54766C45.2987 8.5374 45.2866 8.52254 45.2768 8.50292C45.2668 8.48274 45.2611 8.46072 45.2581 8.44246C45.2566 8.4337 45.256 8.42671 45.2557 8.4225L45.2555 8.41884V5.82973C45.2555 5.78108 45.2671 5.75458 45.2768 5.73985C45.2871 5.72425 45.3019 5.7121 45.3209 5.70248C45.3406 5.69254 45.3621 5.68683 45.3799 5.68384C45.3884 5.6824 45.3952 5.68174 45.3993 5.68144Z"  stroke-width="0.3"/>
<path d="M50.1361 5.68144L50.1396 5.68125H52.7049C52.7521 5.68125 52.7776 5.69274 52.7918 5.70228C52.807 5.71251 52.8191 5.72736 52.8288 5.747C52.8388 5.76719 52.8446 5.78923 52.8476 5.8075C52.849 5.81627 52.8497 5.82326 52.85 5.82748L52.8502 5.83115V8.42027C52.8502 8.46897 52.8386 8.4955 52.8288 8.51024C52.8185 8.52584 52.8039 8.53797 52.7849 8.54757C52.7653 8.55748 52.7439 8.56318 52.7261 8.56617C52.7176 8.56761 52.7108 8.56826 52.7068 8.56856L52.7034 8.56875H50.138C50.0906 8.56875 50.065 8.55724 50.0508 8.54766C50.0355 8.5374 50.0234 8.52254 50.0137 8.50292C50.0037 8.48274 49.9979 8.46072 49.9949 8.44246C49.9935 8.4337 49.9928 8.42671 49.9925 8.4225L49.9923 8.41884V5.82973C49.9923 5.78108 50.0039 5.75458 50.0137 5.73985C50.024 5.72425 50.0387 5.7121 50.0577 5.70248C50.0774 5.69254 50.0989 5.68683 50.1167 5.68384C50.1253 5.6824 50.1321 5.68174 50.1361 5.68144Z"  stroke-width="0.3"/>
</svg>
