<svg viewBox="0 0 69 45" fill="none" xmlns="http://www.w3.org/2000/svg">
<path fill-rule="evenodd" clip-rule="evenodd" d="M14.063 33.0638C14.5881 31.1037 13.8507 28.3515 12.4158 26.9166C10.981 25.4817 9.39218 25.9074 8.86706 27.8675C8.34193 29.8276 9.07938 32.5798 10.5142 34.0147C11.949 35.4497 13.5379 35.0239 14.063 33.0638ZM14.1975 33.1984C14.7499 31.1368 13.9742 28.242 12.4651 26.7328C10.956 25.2235 9.28482 25.6713 8.73249 27.7329C8.18017 29.7946 8.95582 32.6893 10.4649 34.1986C11.9741 35.7078 13.6452 35.26 14.1975 33.1984Z" fill="black"/>
<path fill-rule="evenodd" clip-rule="evenodd" d="M12.9956 32.1247C13.3233 30.9016 12.8606 29.1808 11.9613 28.2814C11.062 27.382 10.0676 27.6457 9.73994 28.8688C9.41225 30.092 9.87495 31.8128 10.7743 32.7122C11.6736 33.6115 12.6679 33.3479 12.9956 32.1247ZM13.0763 32.2055C13.4205 30.921 12.9345 29.1148 11.9908 28.1711C11.0472 27.2274 10.0033 27.5036 9.6592 28.7881C9.31509 30.0725 9.80109 31.8788 10.7447 32.8225C11.6883 33.7662 12.7322 33.4899 13.0763 32.2055Z" fill="black"/>
<path fill-rule="evenodd" clip-rule="evenodd" d="M22.4471 37.5433C22.9972 35.4898 22.2246 32.6065 20.7215 31.1032C19.2183 29.5999 17.5538 30.046 17.0036 32.0994C16.4535 34.1529 17.2261 37.0362 18.7292 38.5395C20.2324 40.0428 21.8969 39.5967 22.4471 37.5433ZM22.588 37.6843C23.1667 35.5244 22.3541 32.4918 20.7731 30.9106C19.192 29.3295 17.4413 29.7986 16.8627 31.9584C16.284 34.1183 17.0966 37.1509 18.6776 38.7321C20.2587 40.3132 22.0094 39.8441 22.588 37.6843Z" fill="black"/>
<path fill-rule="evenodd" clip-rule="evenodd" d="M21.3288 36.5591C21.6721 35.2777 21.1873 33.4749 20.2452 32.5327C19.303 31.5905 18.2613 31.8667 17.918 33.1481C17.5747 34.4295 18.0594 36.2323 19.0016 37.1745C19.9437 38.1168 20.9855 37.8406 21.3288 36.5591ZM21.4133 36.6437C21.7738 35.2981 21.2647 33.4058 20.2761 32.4172C19.2876 31.4285 18.1939 31.7179 17.8334 33.0635C17.4729 34.4092 17.9821 36.3015 18.9706 37.2901C19.9592 38.2787 21.0528 37.9893 21.4133 36.6437Z" fill="black"/>
<path fill-rule="evenodd" clip-rule="evenodd" d="M58.6706 16.7368C54.4849 18.9193 49.9209 20.865 46.8198 22.0583C46.5621 22.1574 46.2747 22.0267 46.1769 21.7684C46.0792 21.5102 46.2082 21.2221 46.4659 21.123C49.5396 19.94 54.0653 18.0103 58.2083 15.8501C60.3874 14.7139 62.4512 13.5188 64.1391 12.3398C65.6144 11.3093 66.7668 10.3152 67.4671 9.4082C67.6358 9.18962 67.944 9.12018 68.1769 9.26844C68.4099 9.41669 68.4796 9.72646 68.3135 9.94707C67.5163 11.006 66.2379 12.0936 64.7117 13.1596C62.9756 14.3723 60.8707 15.5897 58.6706 16.7368Z" fill="black"/>
<path fill-rule="evenodd" clip-rule="evenodd" d="M58.6706 16.7368C54.4849 18.9193 49.9209 20.865 46.8198 22.0583C46.5621 22.1574 46.2747 22.0267 46.1769 21.7684C46.0792 21.5102 46.2082 21.2221 46.4659 21.123C49.5396 19.94 54.0653 18.0103 58.2083 15.8501C60.3874 14.7139 62.4512 13.5188 64.1391 12.3398C65.6144 11.3093 66.7668 10.3152 67.4671 9.4082C67.6358 9.18962 67.944 9.12018 68.1769 9.26844C68.4099 9.41669 68.4796 9.72646 68.3135 9.94707C67.5163 11.006 66.2379 12.0936 64.7117 13.1596C62.9756 14.3723 60.8707 15.5897 58.6706 16.7368Z" fill="url(#paint0_linear_2630_415)"/>
<path fill-rule="evenodd" clip-rule="evenodd" d="M58.6706 16.7368C54.4849 18.9193 49.9209 20.865 46.8198 22.0583C46.5621 22.1574 46.2747 22.0267 46.1769 21.7684C46.0792 21.5102 46.2082 21.2221 46.4659 21.123C49.5396 19.94 54.0653 18.0103 58.2083 15.8501C60.3874 14.7139 62.4512 13.5188 64.1391 12.3398C65.6144 11.3093 66.7668 10.3152 67.4671 9.4082C67.6358 9.18962 67.944 9.12018 68.1769 9.26844C68.4099 9.41669 68.4796 9.72646 68.3135 9.94707C67.5163 11.006 66.2379 12.0936 64.7117 13.1596C62.9756 14.3723 60.8707 15.5897 58.6706 16.7368Z" fill="url(#paint1_linear_2630_415)"/>
<path fill-rule="evenodd" clip-rule="evenodd" d="M51.2917 12.2476L32.143 1.48246C29.7033 0.110848 25.8635 0.062279 23.3238 1.37091L2.91554 11.8868C0.109743 13.3326 -0.0229313 15.8571 2.62579 17.4001L22.4734 28.9625C24.9982 30.4334 29.0872 30.4422 31.6307 28.9823L51.3401 17.6691C53.9426 16.1753 53.9208 13.7256 51.2917 12.2476ZM32.6445 1.17973C29.9337 -0.344276 25.6672 -0.398242 22.8454 1.05579L2.43709 11.5717C0.53185 12.5534 -0.264091 13.9828 0.0767314 15.3374L0.00395862 29.0559C0.0830365 30.0647 0.781909 31.0619 2.11154 31.8365L21.6836 43.2384C24.4892 44.8728 29.0328 44.8825 31.8588 43.2601L51.6399 31.9039C52.8524 31.2078 53.511 30.5 53.7405 29.4133L53.7568 29.3594L53.756 29.3318C53.8045 29.0514 53.7568 28.8125 53.7568 28.4882L53.756 16.0595C54.4084 14.633 53.7522 13.0462 51.7932 11.9449L32.6445 1.17973ZM53.0189 29.3846L53.019 17.0915C52.7041 17.4056 52.3135 17.701 51.8469 17.9688L32.1375 29.282C30.6419 30.1404 28.6654 30.5419 26.72 30.4873V44.0497C28.3912 44.0601 30.0684 43.6973 31.352 42.9604L51.133 31.6042C52.2146 30.9833 52.8428 30.1973 53.0189 29.3846ZM26.3515 44.0413V30.4715C24.7489 30.3788 23.1896 29.9747 21.9627 29.26L2.11515 17.6976C1.49566 17.3367 1.0131 16.9275 0.666351 16.4913L0.820117 29.5314C1.04501 30.2653 1.6439 30.9691 2.62218 31.539L22.1942 42.9409C23.3513 43.615 24.8368 43.982 26.3515 44.0413Z" fill="black"/>
<defs>
<linearGradient id="paint0_linear_2630_415" x1="63.531" y1="2.76843" x2="47.531" y2="18.7684" gradientUnits="userSpaceOnUse">
<stop offset="0.229167" stop-color="white"/>
<stop offset="1" stop-color="white" stop-opacity="0"/>
</linearGradient>
<linearGradient id="paint1_linear_2630_415" x1="47" y1="20.5" x2="59.177" y2="16.2684" gradientUnits="userSpaceOnUse">
<stop offset="0.486546" stop-color="white"/>
<stop offset="0.573176" stop-opacity="0"/>
</linearGradient>
</defs>
</svg>
