<svg viewBox="0 0 58 36" fill="none" xmlns="http://www.w3.org/2000/svg">
<path d="M45.4534 1.53561C44.6867 1.11649 43.4656 1.11717 42.7005 1.53715L2.17976 23.7779C1.3784 24.2177 1.38847 24.944 2.20193 25.3767L12.0639 30.6234C12.8354 31.0338 14.0465 31.0271 14.8034 30.6081L55.0215 8.34677C55.8098 7.91047 55.8058 7.19512 55.0128 6.76158L45.4534 1.53561Z"  stroke-width="0.8"/>
<path fill-rule="evenodd" clip-rule="evenodd" d="M1.18043 28.0848C1.25234 28.0441 1.34032 28.0441 1.41223 28.0848L12.3935 34.3002C13.0047 34.6462 13.7526 34.6462 14.3638 34.3002L55.2423 11.1628C55.3175 11.1202 55.4095 11.1202 55.4847 11.1628C55.6511 11.257 55.6511 11.4967 55.4847 11.5909L54.9926 11.8694L14.3867 34.8525C13.7755 35.1985 13.0277 35.1985 12.4165 34.8526L1.68896 28.7821L1.18045 28.4943C1.02124 28.4042 1.02123 28.1749 1.18043 28.0848Z" fill="black"/>
<path d="M1.41545 24.8917L1.36047 28.3727"  stroke-width="0.5"/>
<path d="M13.1421 30.9326V34.8729"  stroke-width="0.5"/>
<path d="M55.7833 7.47998L55.3604 11.373"  stroke-width="0.5"/>
<rect y="0.249984" width="7.62372" height="6.46319" transform="matrix(0.866044 0.499967 -0.866044 0.499967 15.8356 18.9756)"  stroke-width="0.5"/>
<rect y="0.249984" width="7.62372" height="6.46319" transform="matrix(0.866044 0.499967 -0.866044 0.499967 24.364 14.001)"  stroke-width="0.5"/>
<rect y="0.249984" width="7.62372" height="6.46319" transform="matrix(0.866044 0.499967 -0.866044 0.499967 33.6027 9.02588)"  stroke-width="0.5"/>
<rect y="0.249984" width="7.62372" height="6.46319" transform="matrix(0.866044 0.499967 -0.866044 0.499967 42.842 4.05127)"  stroke-width="0.5"/>
</svg>
