<svg width="631" height="276" viewBox="0 0 631 276" fill="none" xmlns="http://www.w3.org/2000/svg">
<path d="M166.062 171.209H196.541V214.195H166.062V272.31H112.679V214.195H2.40135L0 180.618L112.124 3.68984H166.062V171.209ZM53.1991 171.209H112.679V76.3797L109.169 82.4679L53.1991 171.209Z" fill="#EDEDED"/>
<path d="M406.382 161.246C406.382 198.39 398.685 226.802 383.292 246.481C367.899 266.16 345.363 276 315.685 276C286.376 276 263.963 266.345 248.447 247.035C232.931 227.725 224.988 200.051 224.618 164.013V114.57C224.618 77.0561 232.376 48.5829 247.893 29.1497C263.532 9.71658 286.007 0 315.315 0C344.624 0 367.037 9.65508 382.553 28.9652C398.069 48.1524 406.012 75.7647 406.382 111.802V161.246ZM352.998 107.005C352.998 84.7433 349.919 68.5695 343.762 58.484C337.728 48.2754 328.246 43.1711 315.315 43.1711C302.754 43.1711 293.457 48.0294 287.423 57.746C281.512 67.3396 278.371 82.4064 278.002 102.947V168.257C278.002 190.15 280.958 206.447 286.869 217.147C292.903 227.725 302.508 233.013 315.685 233.013C328.738 233.013 338.159 227.909 343.947 217.701C349.735 207.492 352.752 191.872 352.998 170.84V107.005Z" fill="#EDEDED"/>
<path d="M600.521 171.209H631V214.195H600.521V272.31H547.138V214.195H436.86L434.459 180.618L546.583 3.68984H600.521V171.209ZM487.658 171.209H547.138V76.3797L543.628 82.4679L487.658 171.209Z" fill="#EDEDED"/>
</svg>
