<svg width="78" height="89" viewBox="0 0 78 89" fill="none" xmlns="http://www.w3.org/2000/svg">
<path d="M25.2721 64.7512L37.3522 43.6314V88.0256H5.34909V43.6314H24.1209L14.4994 60.5033L21.8234 59.2235L25.2721 64.7512ZM36.7766 40.0983H0.0522061L0 22.4551H19.5651C16.688 20.9902 14.6042 19.1893 13.2875 17.1427C12.2282 15.5097 11.7441 13.7004 11.7441 11.9942C11.7441 9.0388 13.1304 4.91124 15.1053 3.07589C17.0892 1.23612 19.7441 0.0256348 22.6301 0.0256348C25.542 0.0256348 28.2496 1.0121 30.5601 2.55906C32.8834 4.0628 34.8583 6.13496 36.5021 8.46156C37.457 9.79729 38.2896 12.7399 38.996 14.2088L39.2882 13.6316C41.2368 9.83168 43.9529 4.83804 47.4449 2.55906C49.7504 1.0121 52.449 0.0256348 55.361 0.0256348C58.1029 0.0256348 60.6489 1.0121 62.5716 2.66225C64.4854 4.3168 65.7977 8.25474 65.7977 11.0294C65.8151 14.3941 63.8054 17.7808 60.0256 20.4518C59.0448 21.1499 57.9329 21.8219 56.6951 22.4551H77.9478L78 40.0983H41.2408V22.4551H36.7721V40.0983H36.7766ZM42.1912 21.3867C49.4148 19.9949 54.1058 17.9872 56.8129 16.057C59.6682 14.0104 60.296 11.2142 60.3134 9.99926C60.3134 8.99118 59.8511 7.53903 58.94 6.7466C58.0462 5.96694 56.7513 5.4413 55.3828 5.4413H55.3654C53.7479 5.45012 52.1046 6.00575 50.4871 7.06145C48.8785 8.13436 47.3092 11.2106 45.9835 13.0804C44.2183 15.5662 42.8971 18.5737 42.1912 21.3867ZM35.7128 20.999C35.2769 19.3661 34.6535 17.6816 33.8209 16.0962C32.2382 12.9379 29.9452 8.64281 27.5085 7.06145C25.8825 6.00575 24.2739 5.45012 22.6301 5.4413H22.6038C21.3263 5.4413 19.9315 6.04456 18.8767 7.02265C17.8218 8.00515 17.207 10.0945 17.2244 11.2706C17.2244 11.9942 17.4118 13.4336 17.9307 14.2737C18.467 15.0749 19.3693 16.0098 20.8252 16.9363C23.585 18.6552 28.3629 20.2538 35.7128 20.999ZM63.5524 60.4428L56.2373 59.2235L52.7801 64.8504L40.87 43.9202V88.0256H72.6986V43.6314H53.9398L63.5524 60.4428Z" fill="#36DD65"/>
</svg>
