<svg  viewBox="0 0 21 20" fill="none" xmlns="http://www.w3.org/2000/svg">
<path fill-rule="evenodd" clip-rule="evenodd" d="M1.00366 1.30701e-07C0.737475 1.30701e-07 0.482189 0.105357 0.293966 0.292893C0.105743 0.48043 0 0.734783 0 1C0 1.26522 0.105743 1.51957 0.293966 1.70711C0.482189 1.89464 0.737475 2 1.00366 2H1.47739C1.69762 1.99996 1.91175 2.07208 2.08678 2.20527C2.2618 2.33845 2.388 2.5253 2.44593 2.737L2.86345 4.263L5.01831 12.133V14C5.01831 14.694 5.25417 15.332 5.65062 15.84C5.36687 16.1587 5.16958 16.5444 5.07748 16.9605C4.98539 17.3766 5.00154 17.8092 5.12441 18.2173C5.24728 18.6253 5.47279 18.9954 5.77953 19.2922C6.08627 19.5891 6.46407 19.8029 6.87705 19.9134C7.29004 20.0239 7.72452 20.0274 8.13924 19.9235C8.55397 19.8197 8.93518 19.612 9.24669 19.3201C9.5582 19.0282 9.78968 18.6619 9.91915 18.2558C10.0486 17.8498 10.0718 17.4175 9.98644 17H13.0978C13.0198 17.3817 13.0325 17.7763 13.1348 18.1523C13.237 18.5283 13.426 18.8753 13.6868 19.1656C13.9475 19.4559 14.2727 19.6814 14.6364 19.8243C15.0002 19.9672 15.3924 20.0233 15.7818 19.9884C16.1712 19.9534 16.547 19.8282 16.8793 19.6229C17.2115 19.4175 17.491 19.1377 17.6954 18.8056C17.8998 18.4736 18.0236 18.0985 18.0567 17.7103C18.0898 17.3222 18.0315 16.9317 17.8863 16.57C17.9907 16.42 18.0519 16.2445 18.0633 16.0623C18.0747 15.8801 18.0359 15.6983 17.951 15.5366C17.8661 15.3749 17.7384 15.2394 17.5818 15.1448C17.4251 15.0502 17.2454 15.0001 17.0623 15H8.0303C7.76411 15 7.50883 14.8946 7.32061 14.7071C7.13238 14.5196 7.02664 14.2652 7.02664 14V13H17.3001C17.7406 13.0001 18.1689 12.8558 18.5189 12.5895C18.869 12.3231 19.1214 11.9494 19.2372 11.526L20.8782 5.526C20.9594 5.22912 20.9708 4.91757 20.9114 4.6156C20.8521 4.31363 20.7236 4.02937 20.536 3.78496C20.3483 3.54054 20.1066 3.34256 19.8297 3.20641C19.5527 3.07027 19.2479 2.99963 18.9391 3H4.59878L4.38299 2.21C4.20905 1.57508 3.83037 1.01477 3.30531 0.615407C2.78025 0.216049 2.13795 -0.000194078 1.47739 1.30701e-07H1.00366ZM15.5568 17C15.4237 17 15.296 17.0527 15.2019 17.1464C15.1078 17.2402 15.0549 17.3674 15.0549 17.5C15.0549 17.6326 15.1078 17.7598 15.2019 17.8535C15.296 17.9473 15.4237 18 15.5568 18C15.6899 18 15.8175 17.9473 15.9116 17.8535C16.0057 17.7598 16.0586 17.6326 16.0586 17.5C16.0586 17.3674 16.0057 17.2402 15.9116 17.1464C15.8175 17.0527 15.6899 17 15.5568 17ZM17.2991 11H6.78877L5.14578 5H18.9401L17.2991 11ZM7.52747 17C7.39437 17 7.26673 17.0527 7.17262 17.1464C7.07851 17.2402 7.02564 17.3674 7.02564 17.5C7.02564 17.6326 7.07851 17.7598 7.17262 17.8535C7.26673 17.9473 7.39437 18 7.52747 18C7.66056 18 7.7882 17.9473 7.88232 17.8535C7.97643 17.7598 8.0293 17.6326 8.0293 17.5C8.0293 17.3674 7.97643 17.2402 7.88232 17.1464C7.7882 17.0527 7.66056 17 7.52747 17Z" fill="white"/>
</svg>
