<svg width="72" height="72" viewBox="0 0 72 72" fill="none" xmlns="http://www.w3.org/2000/svg">
<circle cx="36" cy="36" r="36" fill="#A7E0A3"/>
<path fill-rule="evenodd" clip-rule="evenodd" d="M50.0767 28.0194H22.0051V43.7719H50.0767V28.0194ZM22.0051 26.0503C20.8977 26.0503 20 26.9319 20 28.0194V43.7719C20 44.8594 20.8977 45.7409 22.0051 45.7409H50.0767C51.184 45.7409 52.0818 44.8594 52.0818 43.7719V28.0194C52.0818 26.9319 51.184 26.0503 50.0767 26.0503H22.0051Z" fill="white"/>
<path d="M46.0664 28.0194C46.0664 30.1943 47.8619 31.9575 50.0767 31.9575V28.0194H46.0664Z" fill="white"/>
<path d="M26.0153 28.0194C26.0153 30.1943 24.2199 31.9575 22.0051 31.9575V28.0194H26.0153Z" fill="white"/>
<path d="M46.0664 43.7719C46.0664 41.5969 47.8619 39.8337 50.0767 39.8337V43.7719H46.0664Z" fill="white"/>
<path d="M26.0153 43.7719C26.0153 41.5969 24.2199 39.8337 22.0051 39.8337V43.7719H26.0153Z" fill="white"/>
<path d="M40.0511 35.8956C40.0511 38.0706 38.2557 39.8337 36.0409 39.8337C33.8261 39.8337 32.0307 38.0706 32.0307 35.8956C32.0307 33.7206 33.8261 31.9575 36.0409 31.9575C38.2557 31.9575 40.0511 33.7206 40.0511 35.8956Z" fill="white"/>
</svg>
