<svg width="72" height="72" viewBox="0 0 72 72" fill="none" xmlns="http://www.w3.org/2000/svg">
<circle cx="36" cy="36" r="36" fill="#A7E0A3"/>
<path fill-rule="evenodd" clip-rule="evenodd" d="M26.9886 25H22.0001C20.8008 25 20 25.9169 20 27.2921V45.6001C20 46.9753 20.8008 47.8922 22.0001 47.8922H26.9945C27.5941 47.8922 28.1937 47.6629 28.5941 46.9753L34.9812 37.8213C35.5827 36.9045 35.5827 35.7584 34.9812 35.078L28.5883 25.9169C28.1879 25.2292 27.5882 25 26.9886 25ZM26.9886 27.2921L33.3756 36.4461L26.9886 45.6001H22.0001V27.2921H26.9886Z" fill="white"/>
<path d="M36.1746 47.885H43.5636C44.1632 47.885 44.7629 47.6558 45.1633 46.9682L51.5503 37.8214C52.1499 37.1409 52.1499 35.9948 51.5503 35.0781L45.1633 25.9241C44.7629 25.2364 44.1632 25.0072 43.5636 25.0072H36.1746C34.5749 25.0072 33.5748 27.2921 34.5749 28.6674L39.9697 36.4461L34.5749 44.2249C33.5807 45.593 34.5749 47.885 36.1746 47.885Z" fill="white"/>
</svg>
