<svg width="18" height="21" viewBox="0 0 18 21" fill="none" xmlns="http://www.w3.org/2000/svg">
<path d="M9.0865 10.0859C7.94721 10.0859 7.01507 9.19107 7.01507 8.09735C7.01507 7.00364 7.94721 6.10878 9.0865 6.10878C10.2258 6.10878 11.1579 7.00364 11.1579 8.09735C11.1579 9.19107 10.2258 10.0859 9.0865 10.0859ZM15.3008 8.29621C15.3008 4.68695 12.5561 2.13164 9.0865 2.13164C5.61685 2.13164 2.87221 4.68695 2.87221 8.29621C2.87221 10.6228 4.89185 13.7051 9.0865 17.384C13.2811 13.7051 15.3008 10.6228 15.3008 8.29621ZM9.0865 0.143066C13.4365 0.143066 17.3722 3.34467 17.3722 8.29621C17.3722 11.5972 14.6069 15.5048 9.0865 20.0288C3.56614 15.5048 0.800781 11.5972 0.800781 8.29621C0.800781 3.34467 4.7365 0.143066 9.0865 0.143066Z" fill="black"/>
</svg>
