<svg width="39" height="44" viewBox="0 0 39 44" fill="none" xmlns="http://www.w3.org/2000/svg">
<path fill-rule="evenodd" clip-rule="evenodd" d="M21.7207 38.8749C31.4445 37.7727 39 29.5187 39 19.5C39 8.73045 30.2696 0 19.5 0C8.73045 0 0 8.73045 0 19.5C0 29.1413 6.99697 37.1483 16.19 38.7202L19 43.5873L21.7207 38.8749Z" fill="#36DD65"/>
<g clip-path="url(#clip0_4136_121)">
<path d="M27.6322 19.4033C28.0217 18.9571 28.2166 18.4294 28.2166 17.8202C28.2166 17.2677 28.0145 16.7897 27.6115 16.3857C27.2078 15.9818 26.7297 15.7799 26.1773 15.7799H23.2343C23.2626 15.6808 23.2909 15.5958 23.3192 15.525C23.3472 15.4541 23.3866 15.3761 23.436 15.2911C23.4854 15.2061 23.5209 15.1423 23.5421 15.0999C23.6696 14.8592 23.7672 14.6607 23.8345 14.505C23.9018 14.349 23.9687 14.1366 24.0362 13.8674C24.1036 13.5984 24.1371 13.3291 24.1371 13.06C24.1371 12.89 24.1351 12.7518 24.1317 12.6456C24.1284 12.5394 24.1103 12.38 24.0787 12.1674C24.0467 11.955 24.0041 11.7779 23.9511 11.6363C23.8979 11.4947 23.8128 11.3352 23.6961 11.1582C23.5792 10.9809 23.4376 10.8377 23.271 10.7278C23.1044 10.618 22.892 10.526 22.6335 10.4517C22.3747 10.3773 22.0827 10.3401 21.7566 10.3401C21.5725 10.3401 21.4133 10.4074 21.2786 10.542C21.1369 10.6837 21.0163 10.8607 20.9172 11.0731C20.818 11.2857 20.7489 11.4698 20.7099 11.6257C20.671 11.7815 20.6266 11.9976 20.5773 12.2738C20.5133 12.5715 20.4657 12.7856 20.4336 12.9166C20.4018 13.0476 20.3396 13.2194 20.2476 13.4318C20.1555 13.6445 20.0458 13.8143 19.9183 13.9419C19.6846 14.1756 19.3269 14.6006 18.8451 15.2168C18.4979 15.6701 18.1403 16.0986 17.772 16.5024C17.4036 16.9062 17.1345 17.1152 16.9645 17.1293C16.7875 17.1435 16.6352 17.2161 16.5077 17.3472C16.3802 17.4782 16.3164 17.6323 16.3164 17.8094V24.6199C16.3164 24.8041 16.3837 24.9616 16.5183 25.0927C16.6528 25.2239 16.8122 25.2929 16.9963 25.3C17.2442 25.3071 17.8038 25.4628 18.6751 25.7676C19.2205 25.9515 19.6472 26.0916 19.9553 26.1871C20.2634 26.2826 20.694 26.3854 21.246 26.4953C21.7986 26.6051 22.3085 26.6601 22.7759 26.6601H22.9566H23.7641H24.1466C25.0889 26.646 25.7862 26.3696 26.2397 25.8314C26.6504 25.3426 26.8239 24.7016 26.7604 23.9082C27.0366 23.6462 27.228 23.3134 27.3341 22.9095C27.4543 22.4777 27.4543 22.0633 27.3341 21.6667C27.6598 21.2346 27.8122 20.7494 27.7908 20.2111C27.7917 19.9842 27.7387 19.7151 27.6322 19.4033Z" fill="white"/>
<path d="M14.74 17.1401H11.6801C11.4958 17.1401 11.3365 17.2075 11.2019 17.3421C11.0673 17.4766 11 17.636 11 17.8202V24.6204C11 24.8043 11.0673 24.9638 11.2019 25.0985C11.3366 25.2329 11.496 25.3002 11.6802 25.3002H14.74C14.9242 25.3002 15.0835 25.2329 15.2181 25.0985C15.3527 24.9638 15.42 24.8043 15.42 24.6204V17.8202C15.42 17.636 15.3527 17.4766 15.2181 17.3421C15.0835 17.2074 14.9242 17.1401 14.74 17.1401ZM13.5181 23.7436C13.3835 23.8746 13.2242 23.9401 13.04 23.9401C12.8487 23.9401 12.6876 23.8746 12.5566 23.7436C12.4256 23.6126 12.3601 23.4515 12.3601 23.2602C12.3601 23.076 12.4255 22.9166 12.5566 22.7821C12.6876 22.6475 12.8487 22.5801 13.04 22.5801C13.2242 22.5801 13.3835 22.6475 13.5181 22.7821C13.6527 22.9166 13.72 23.076 13.72 23.2602C13.72 23.4515 13.6529 23.6125 13.5181 23.7436Z" fill="white"/>
</g>
<defs>
<clipPath id="clip0_4136_121">
<rect width="17" height="17" fill="white" transform="translate(11 10)"/>
</clipPath>
</defs>
</svg>
