<svg width="127" height="96" viewBox="0 0 127 96" fill="none" xmlns="http://www.w3.org/2000/svg">
<path fill-rule="evenodd" clip-rule="evenodd" d="M107.441 0.139264L26.4474 13.722C23.7126 14.1806 21.2911 15.7542 19.7611 18.0669L1.66023 45.4287C-1.13251 49.6503 -0.330419 55.2929 3.52811 58.569L9.78216 63.8791C9.54235 64.6336 9.32133 65.4035 9.12047 66.1876C5.55872 80.0894 9.68134 93.1552 18.3286 95.3706C26.2684 97.4048 35.2622 89.5842 39.4377 77.5295L118.501 64.5073C123.986 63.6038 127.682 58.3998 126.727 52.923L118.946 8.28432C118.002 2.8682 112.863 -0.770027 107.441 0.139264ZM26.8841 72.1629L21.6117 68.2965C20.221 67.2766 18.2779 68.3773 18.4376 70.0946L20.0219 87.1254C20.1737 88.7576 22.0744 89.4754 23.1567 88.2442C28.3451 82.3419 34.9832 71.3442 34.1269 58.5034C34.0617 57.5249 34.669 56.6167 35.5435 56.173C39.8116 54.0071 45.5177 47.8079 37.6766 41.5813C37.5723 41.4985 37.455 41.4236 37.3344 41.3673C32.8711 39.284 25.703 40.6162 25.703 48.5405C25.703 49.8719 26.294 52.5822 28.4751 54.2447C29.2114 54.806 29.7259 55.6804 29.5686 56.5927L26.8841 72.1629Z" fill="url(#paint0_linear_126_1132)"/>
<defs>
<linearGradient id="paint0_linear_126_1132" x1="110.139" y1="-78.0142" x2="-20.404" y2="116.964" gradientUnits="userSpaceOnUse">
<stop stop-color="white"/>
<stop offset="1" stop-color="white" stop-opacity="0"/>
</linearGradient>
</defs>
</svg>
