<svg width="30" height="20" viewBox="0 0 30 20" fill="none" xmlns="http://www.w3.org/2000/svg">
<path fill-rule="evenodd" clip-rule="evenodd" d="M6.55151 0.625H1.875C0.750732 0.625 0 1.37596 0 2.50235V17.4977C0 18.624 0.750732 19.375 1.875 19.375H6.55701C7.11914 19.375 7.68127 19.1873 8.05664 18.624L14.0442 11.1264C14.6082 10.3755 14.6082 9.43678 14.0442 8.87945L8.05115 1.37596C7.67578 0.81274 7.11365 0.625 6.55151 0.625ZM6.55151 2.50235L12.5391 10L6.55151 17.4977H1.875V2.50235H6.55151Z" fill="#36DD65"/>
<path d="M15.163 19.3692H22.0898C22.652 19.3692 23.2141 19.1814 23.5895 18.6182L29.577 11.1264C30.1392 10.5691 30.1392 9.63041 29.577 8.87951L23.5895 1.38186C23.2141 0.818634 22.652 0.630894 22.0898 0.630894H15.163C13.6633 0.630894 12.7258 2.50235 13.6633 3.62879L18.7207 10L13.6633 16.3713C12.7313 17.4918 13.6633 19.3692 15.163 19.3692Z" fill="#36DD65"/>
</svg>
