<svg width="14" height="14" viewBox="0 0 14 14" fill="none" xmlns="http://www.w3.org/2000/svg">
<path d="M12.5202 8.92578L11.2945 7.70097L13.746 5.25135C14.534 4.37648 13.3082 3.23916 12.5202 4.02654L10.0687 6.47616L7.52966 3.93905L9.98117 1.48943C10.7692 0.614564 9.63096 -0.52276 8.75542 0.264618L6.3039 2.71424L5.07814 1.48943C4.29015 0.789537 3.0644 1.83938 3.85238 2.71424L2.80173 3.76408C1.05065 5.51381 0.963096 8.31338 2.62662 10.1506L0 12.7752L1.22576 14L3.76483 11.4629C4.55282 12.3378 7.267 14 9.89362 11.5504L11.2069 10.2381C12.17 10.938 13.3082 9.71316 12.5202 8.92578Z" fill="white"/>
</svg>
